<?xml version="1.0" encoding="UTF-8" standalone="no"?>
<!-- Created with Inkscape (http://www.inkscape.org/) -->

<svg
   xmlns:dc="http://purl.org/dc/elements/1.1/"
   xmlns:cc="http://creativecommons.org/ns#"
   xmlns:rdf="http://www.w3.org/1999/02/22-rdf-syntax-ns#"
   xmlns:svg="http://www.w3.org/2000/svg"
   xmlns="http://www.w3.org/2000/svg"
   xmlns:sodipodi="http://sodipodi.sourceforge.net/DTD/sodipodi-0.dtd"
   xmlns:inkscape="http://www.inkscape.org/namespaces/inkscape"
   id="svg3036"
   version="1.1"
   inkscape:version="0.48.4 r9939"
   width="1500"
   height="1500.5032"
   sodipodi:docname="buzzconf-logo.svg">
  <metadata
     id="metadata3042">
    <rdf:RDF>
      <cc:Work
         rdf:about="">
        <dc:format>image/svg+xml</dc:format>
        <dc:type
           rdf:resource="http://purl.org/dc/dcmitype/StillImage" />
      </cc:Work>
    </rdf:RDF>
  </metadata>
  <defs
     id="defs3040" />
  <sodipodi:namedview
     pagecolor="#ffffff"
     bordercolor="#666666"
     borderopacity="1"
     objecttolerance="10"
     gridtolerance="10"
     guidetolerance="10"
     inkscape:pageopacity="0"
     inkscape:pageshadow="2"
     inkscape:window-width="1043"
     inkscape:window-height="963"
     id="namedview3038"
     showgrid="false"
     inkscape:zoom="2.6398653"
     inkscape:cx="45.461148"
     inkscape:cy="112.16298"
     inkscape:window-x="807"
     inkscape:window-y="68"
     inkscape:window-maximized="0"
     inkscape:current-layer="svg3036"
     fit-margin-top="0"
     fit-margin-left="0"
     fit-margin-right="0"
     fit-margin-bottom="0" />
  <path
     style="opacity:0.6;fill:none;stroke:#ffffff;stroke-width:4.49657153999999970;stroke-miterlimit:4;stroke-opacity:0.94117647000000004;stroke-dasharray:none"
     d="m 1173.651,1487.9797 c -2.1235,-5.5338 -2.3115,-14.099 -0.4179,-19.0338 1.8937,-4.9349 -8.7655,-21.1811 -23.6871,-36.1027 -28.5263,-28.5263 -33.904,-48.2743 -16.9726,-62.3261 8.7743,-7.2822 6.5937,-11.0509 -16.0139,-27.6767 -31.3565,-23.0599 -47.8043,-46.5424 -47.8043,-68.2502 0,-12.4319 -5.9852,-18.3386 -26.9127,-26.5591 -14.802,-5.8144 -25.3284,-8.0081 -23.392,-4.8749 1.9364,3.1331 -6.7873,23.2792 -19.38611,44.7689 -66.64221,113.672 -153.64099,164.9404 -227.33548,133.9688 -29.63494,-12.4546 -73.73615,-62.1696 -98.27964,-110.79 -23.30475,-46.1664 -56.10348,-153.1249 -51.92318,-169.3244 2.52768,-9.7952 -0.14464,-9.9262 -28.20084,-1.3815 -108.4282,33.0222 -300.2512,45.8679 -380.05548,25.4507 -75.54401,-19.3271 -117.448477,-60.564 -122.415979,-120.4654 -3.87702,-46.7517 9.239439,-84.02034 52.126369,-148.10938 l 31.71285,-47.39086 -19.89084,-11.4159 c -16.64023,-9.55012 -19.40405,-14.73242 -16.91208,-31.71132 2.41866,-16.47934 0.98209,-19.48649 -7.6401,-15.99281 -42.539731,17.23716 -85.496658,7.29974 -78.819494,-18.23375 2.597906,-9.93442 0.965471,-10.91512 -9.154089,-5.4993 -18.464774,9.88211 -40.0281212,8.01259 -40.0281212,-3.47016 0,-5.6964 6.0112994,-10.06138 13.8561492,-10.06138 24.973652,0 56.759229,-22.38441 49.185916,-34.63824 -4.035744,-6.52997 -36.01446,5.55019 -51.291506,19.37574 -10.831019,9.80194 -11.7505592,9.56275 -11.7505592,-3.05638 0,-14.58934 34.5762232,-35.34182 58.8838242,-35.34182 14.606448,0 30.81241,15.38936 23.697943,22.50384 -2.475289,2.4753 5.003929,-0.24081 16.620497,-6.03603 65.26988,-32.56094 113.21819,-8.60652 73.58187,36.76062 -11.23069,12.8545 -9.11193,11.95953 8.38449,-3.54148 12.8771,-11.40854 33.27616,-24.62518 45.33124,-29.3702 27.89561,-10.98019 74.52488,-12.36879 80.68419,-2.40279 3.26607,5.28458 10.34378,3.15968 22.94625,-6.88922 l 18.22343,-14.53087 -34.45066,-69.09035 c -30.55113,-61.26991 -34.79282,-75.00117 -37.47359,-121.30976 -4.59149,-79.31548 20.66731,-119.51628 89.13422,-141.86212 67.3951,-21.99605 271.91342,6.68499 280.52251,39.33961 1.92603,7.30551 3.3067,5.37479 3.8708,-5.41285 2.67177,-51.09422 82.57664,-245.4673 128.29438,-312.083344 26.09735,-38.02685 73.13119,-83.6645102 86.22401,-83.6645102 7.01486,0 -5.05055,16.7340502 -33.12893,45.9480902 -50.04306,52.066984 -92.98874,128.660714 -131.16024,233.924604 -24.05757,66.34268 -64.76141,223.63616 -59.28806,229.10951 7.71376,7.71376 35.36,-13.6188 39.56566,-30.5299 12.77509,-51.36897 62.44514,-162.95022 92.61889,-208.06374 53.06844,-79.34395 111.65771,-107.31338 165.9664,-79.22928 37.3592,19.31922 77.99319,89.60503 99.68799,172.43338 43.6177,166.52743 34.9352,462.48419 -19.4051,661.45835 -7.3745,27.0033 -11.8087,51.685 -9.8537,54.8483 4.053,6.558 49.9236,22.7789 53.7094,18.9931 5.3869,-5.3869 36.1452,-119.82945 49.2667,-183.3062 51.3295,-248.31413 50.07,-534.9573 -3.1618,-719.58858 C 1090.3968,124.90906 1058.5466,60.830786 1027.1661,28.495296 1006.3384,7.0336958 1004.036,2.2482858 1014.5383,2.2482858 c 22.1702,0 68.7705,67.7871902 92.1789,134.0882642 8.4787,24.01458 15.4795,37.47514 15.5573,29.91233 0.2871,-27.8805 35.4514,-40.5338 55.8783,-20.10681 11.2122,11.21216 18.0467,6.97324 18.0467,-11.193 0,-6.94669 4.7002,-21.71954 10.4449,-32.82856 8.2943,-16.039424 14.1639,-19.768804 28.5072,-18.112774 14.8311,1.71235 19.3632,-1.51445 25.3341,-18.03734 7.9305,-21.94615 33.9756,-31.25859 43.8509,-15.67894 7.9664,12.56827 7.2855,64.263804 -1.0517,79.842014 -3.8189,7.13583 -12.8742,12.97422 -20.1227,12.97422 -9.6307,0 -13.1792,4.57311 -13.1792,16.98443 0,24.20465 -17.5191,62.92854 -30.7698,68.01335 -6.1891,2.37494 -16.8898,0.79774 -23.7795,-3.50492 -11.3945,-7.11596 -12.53,-5.54443 -12.5641,17.38727 -0.06,39.15586 -12.1765,73.59862 -31.1446,88.51895 -14.4354,11.35492 -16.6132,17.24453 -13.1342,35.51996 l 4.1705,21.90804 65.3491,1.08127 c 248.3772,4.10972 288.8542,161.49684 93.3068,362.80548 -18.8138,19.36823 -38.7433,35.2149 -44.2876,35.2149 -5.8215,0 5.6482,16.29528 27.1472,38.5686 116.7557,120.96137 194.1889,246.56578 193.3175,313.57998 l -0.436,33.538 -9.4276,-35.0005 c -27.2244,-101.0718 -134.4756,-251.49605 -260.9798,-366.03482 -48.6811,-44.07655 -50.4225,-45.00369 -54.4426,-28.98622 -3.4139,13.60209 3.8169,25.88238 40.6338,69.00945 90.8482,106.41886 131.9247,183.96884 133.2753,251.61599 0.8779,43.9678 -11.9117,66.4917 -49.6198,87.3862 -36.4437,20.1938 -143.6355,13.7176 -227.8422,-13.7656 C 909.97429,1085.1248 713.12978,961.92773 564.80705,821.54611 l -64.60113,-61.14228 -24.68287,19.61554 -24.68285,19.6154 65.8448,65.80747 c 199.81219,199.69876 475.02351,367.69456 696.8468,425.37236 82.5124,21.4548 182.1064,22.0449 221.236,1.3109 32.8571,-17.4101 41.9044,-27.6307 53.6862,-60.6476 l 8.9983,-25.2171 0.2945,27.5278 c 0.3327,31.1097 -16.2277,53.6833 -54.1216,73.7729 -27.6397,14.6531 -143.9795,21.1989 -183.3871,10.318 -19.7916,-5.4648 -24.1385,-5.3135 -18.1916,0.6331 10.1785,10.1786 10.0381,40.4691 -0.2355,50.7425 -4.427,4.427 -13.6972,8.0491 -20.6003,8.0491 -10.0063,0 -7.6941,4.581 11.4029,22.5917 25.7101,24.2478 32.4029,55.0784 13.5288,62.321 -8.8528,3.3971 -8.1705,6.4004 4.5231,19.9123 13.6595,14.5398 13.881,15.9116 2.5689,15.9116 -6.8086,0 -17.1446,-4.1706 -22.9689,-9.2679 -5.8243,-5.0975 -17.8229,-11.478 -26.6637,-14.1789 -14.0166,-4.2824 -15.5995,-3.096 -12.3662,9.268 4.2962,16.4285 -11.4459,20.1146 -17.5846,4.1174 z m 65.7968,-43.0314 c 6.9101,-11.1809 -29.7252,-46.3703 -60.5194,-58.1308 -37.6144,-14.3651 -51.2812,-6.2335 -33.9582,20.2047 19.4624,29.7035 83.6378,55.4652 94.4776,37.9261 z m -375.27407,-39.9238 c 40.85144,-18.6222 69.54919,-46.0792 105.13176,-100.5862 17.80563,-27.2754 32.37381,-51.6639 32.37381,-54.1964 0,-2.5326 -11.28126,-9.9843 -25.06944,-16.5595 -23.70578,-11.3046 -25.43895,-11.3245 -31.86106,-0.3669 -39.74953,67.8203 -91.27738,117.4955 -132.20267,127.4496 -62.19572,15.1274 -128.01504,-63.0416 -159.74558,-189.7189 -7.75826,-30.9733 -23.08736,-40.5937 -16.03161,-10.0614 19.74439,85.4397 63.76996,181.3055 98.76613,215.0637 44.12066,42.5599 80.74371,50.8094 128.63866,28.9762 z m 364.85807,-50.3464 c 9.2805,-11.1822 2.8369,-31.0345 -10.0731,-31.0345 -5.1389,0 -36.5093,-8.736 -69.712,-19.4135 -33.2028,-10.6774 -60.3687,-17.3062 -60.3687,-14.7309 0,10.3961 45.4661,47.6446 73.7835,60.448 35.4591,16.0324 55.7882,17.4814 66.3703,4.7309 z m -382.93697,-25.9623 c 12.19172,-7.3302 33.72388,-28.8259 47.8494,-47.7685 25.26964,-33.887 50.43994,-77.8909 46.18451,-80.7416 -1.19435,-0.8001 -24.80963,-14.6178 -52.47844,-30.7059 -27.66881,-16.0883 -69.79129,-42.2496 -93.60545,-58.1366 -23.81416,-15.8868 -45.09318,-25.9815 -47.28663,-22.4324 -4.74703,7.6808 -76.56199,33.1528 -96.60057,34.2632 -10.20761,0.5655 -11.03522,1.5775 -3.03083,3.7056 7.18431,1.9101 14.89352,18.3832 22.18194,47.3985 21.18021,84.3188 60.50823,149.4232 100.62614,166.5784 23.57549,10.0814 44.80382,6.6918 76.15993,-12.1607 z M 492.52094,1146.5073 c 56.72222,-10.2117 219.9417,-54.6032 227.10507,-61.7665 8.61255,-8.6126 -24.01955,-23.3525 -43.26483,-19.5427 -134.95781,26.7155 -231.24671,30.9737 -292.05485,12.9155 -24.18058,-7.1809 -44.95812,-19.475 -62.41319,-36.9301 -24.97605,-24.976 -26.03268,-27.7697 -23.23984,-61.4477 4.12993,-49.80148 28.00506,-92.98955 84.87108,-153.5242 111.76687,-118.97747 317.01813,-239.43684 524.24869,-307.67495 42.42552,-13.97013 87.76192,-27.39272 100.74753,-29.82802 22.9224,-4.29878 23.5356,-5.21063 21.0475,-31.30029 -1.4095,-14.77989 -6.5507,-28.40287 -11.4249,-30.27328 -12.3391,-4.73495 -112.36055,21.11782 -204.2717,52.79858 -353.01164,121.67919 -667.08319,356.16937 -705.20507,526.51596 -16.333755,72.9867 26.6856,124.5489 122.00348,146.2306 52.70762,11.9894 177.28023,9.0527 261.85103,-6.1729 z m 786.61266,-6.5095 c 12.1742,-5.0868 28.9734,-17.9151 37.3315,-28.5074 32.3351,-40.9781 5.9592,-130.1153 -67.7407,-228.93031 l -33.8719,-45.41462 -23.2078,21.88781 c -12.7644,12.03837 -30.3004,23.66801 -38.9689,25.8436 -13.4161,3.36718 -17.453,11.6022 -27.1323,55.34845 -19.3556,87.47867 -43.5107,165.07277 -53.8385,172.94637 -8.1009,6.1761 -5.9435,8.4338 12.036,12.5963 12.0483,2.7893 38.5073,8.9601 58.7977,13.7127 49.5167,11.5985 109.5296,11.8257 136.5949,0.5173 z m -281.78368,-54.5974 c -2.14964,-5.6018 -0.18445,-24.4669 4.36768,-41.9224 4.5519,-17.4555 10.4733,-40.9182 13.1587,-52.13939 l 4.8826,-20.40215 -66.24919,33.64454 -66.24926,33.6444 55.53255,28.3432 c 30.54288,15.5888 56.19244,28.4948 56.99896,28.6801 0.80644,0.1852 -0.29245,-4.2464 -2.44204,-9.8483 z m -407.94998,-20.3661 c 12.25773,-3.4104 13.4991,-8.5693 12.14992,-50.4934 l -1.50271,-46.69493 -71.91877,-68.6051 c -39.55534,-37.73283 -77.07852,-77.05939 -83.38487,-87.39221 l -11.4661,-18.78728 -38.44252,42.26373 c -140.26053,154.20258 -97.31349,246.22329 110.48273,236.72649 38.73633,-1.7704 76.57338,-4.9282 84.08232,-7.0173 z m 101.93338,-18.6377 c 11.76875,0 12.17308,0.4367 -22.89113,-24.7442 -22.4135,-16.0961 -30.0895,-19.143 -26.83038,-10.6498 2.51087,6.5431 4.56522,19.2534 4.56522,28.2449 0,14.459 2.11767,15.8167 18.32594,11.7486 10.07929,-2.5298 22.15296,-4.5995 26.83035,-4.5995 z m -62.76667,-23.3287 c -4.51914,-19.2021 -15.92759,-36.08362 -15.92759,-23.56862 0,19.77282 9.04309,48.48142 14.25649,45.25932 3.25354,-2.0107 4.00553,-11.7716 1.6711,-21.6907 z M 1010.441,947.59566 c 2.2335,-8.54079 -13.74392,-3.38082 -66.31306,21.41597 -38.09059,17.96725 -73.17197,32.76367 -77.95871,32.88107 -5.4487,0.1334 -4.04165,3.7442 3.76269,9.6559 11.11241,8.4174 19.25703,6.069 75.01629,-21.62926 34.40277,-17.08952 63.87449,-36.1352 65.49279,-42.32368 z m -136.20589,33.83745 c 12.91211,-4.89602 53.92567,-23.24188 91.1412,-40.76862 l 67.66469,-31.8666 7.9115,-56.55443 c 4.3514,-31.10489 9.647,-84.91236 11.7682,-119.57213 l 3.8565,-63.01775 -20.3373,-10.06139 C 999.7872,641.55815 887.6503,558.20926 887.6503,549.14886 c 0,-6.31389 -13.85266,-3.25884 -48.63003,10.72486 -81.64562,32.82899 -193.38824,88.52853 -186.34095,92.884 4.27188,2.64017 4.52416,17.20139 0.70493,40.68788 -3.2713,20.11695 -8.12972,64.49666 -10.79649,98.62144 -2.66677,34.12493 -7.74172,62.04534 -11.27764,62.04534 -10.65878,0 67.55147,62.46428 137.96219,110.18639 54.65439,37.04293 67.41271,43.16623 73.78351,35.41185 4.23651,-5.15652 18.26717,-13.38134 31.17929,-18.27751 z m -98.19282,-86.84888 c -79.85253,-45.79894 -92.64257,-159.5311 -25.06654,-222.89791 70.78326,-66.37434 183.48079,-43.8318 224.57175,44.92039 30.3247,65.49847 3.20489,145.97721 -60.38629,179.19758 -49.42528,25.82022 -92.6339,25.44116 -139.11892,-1.22006 z m 55.37552,1.67362 c -2.6442,-2.64428 16.7168,-8.43452 43.0245,-12.86709 44.82381,-7.55259 73.57631,-22.47057 73.57631,-38.1744 0,-3.74924 4.9954,-12.33664 11.10098,-19.08315 6.10552,-6.7465 7.86626,-12.26649 3.91274,-12.26649 -3.95352,0 -8.39501,3.62049 -9.87002,8.04541 -1.67735,5.03227 -4.31994,3.77622 -7.05597,-3.35384 -3.0592,-7.97197 -0.90855,-11.46041 7.15344,-11.6031 10.73497,-0.18976 10.71685,-0.67614 -0.2636,-7.07056 -12.91729,-7.52232 -27.61597,-2.22236 -21.46007,7.738 2.12249,3.43433 0.91403,6.24409 -2.68546,6.24409 -3.59949,0 -7.9279,-3.77293 -9.61881,-8.38446 -2.37871,-6.48735 -5.16109,-6.26477 -12.29724,0.984 -5.07261,5.15277 -5.80521,7.45801 -1.628,5.12279 4.96651,-2.77633 7.25561,2.5016 6.61443,15.25088 -0.9614,19.11657 -27.27286,47.39521 -44.09839,47.39521 -12.07286,0 -27.69973,-42.28051 -18.15524,-49.1213 4.65917,-3.33945 0.68593,-4.4624 -9.86954,-2.78952 -16.58379,2.62809 -17.33074,1.62326 -12.16938,-16.37337 3.34031,-11.64702 3.03512,-17.65069 -0.77761,-15.29434 -3.45206,2.13348 -6.51481,8.98325 -6.80606,15.2215 -0.29379,6.2973 -1.97378,7.79495 -3.77637,3.36703 -1.78582,-4.38656 1.53939,-15.28025 7.38928,-24.20834 5.84989,-8.9281 8.73556,-21.1859 6.41259,-27.23948 -2.32297,-6.05344 -1.3008,-11.00644 2.27146,-11.00644 3.57226,0 4.9995,-7.8236 3.17155,-17.38574 -1.82789,-9.56214 -5.18236,-14.54166 -7.45428,-11.06553 -2.272,3.47608 -10.65004,9.75097 -18.61792,13.94416 -9.3023,4.8954 -13.34322,11.99826 -11.29089,19.84637 2.19292,8.3855 -2.20834,14.6849 -14.02015,20.0667 -9.46903,4.31446 -17.26265,13.19129 -17.31913,19.72646 -0.0859,9.93427 -1.12567,10.26462 -6.34289,2.01491 -8.97651,-14.19388 -11.90758,-6.73092 -6.50979,16.57481 2.56331,11.06742 5.01768,15.19257 5.45422,9.16671 1.00533,-13.87956 26.7787,-21.03166 37.42499,-10.38528 4.42527,4.42523 6.65715,12.21209 4.95987,17.30416 -1.86867,5.60588 -0.0965,7.41065 4.49167,4.57496 12.2437,-7.56698 8.69558,9.34028 -5.83742,27.81609 -17.84541,22.68671 -17.13943,25.52524 8.38449,33.71305 28.62672,9.18335 28.13198,9.10541 22.58171,3.55514 z M 812.07808,739.25094 c 4.55002,-4.58411 9.96238,-6.64501 12.02758,-4.57981 2.0652,2.0652 -1.65751,5.81582 -8.27267,8.33471 -9.55967,3.64008 -10.33009,2.86966 -3.75491,-3.7549 z m 75.57222,154.75533 c 7.20911,-4.91071 2.45537,-5.5801 -16.76899,-2.36115 -33.27448,5.5714 -38.63008,9.45299 -12.85624,9.31764 10.76012,-0.054 24.09146,-3.18687 29.62523,-6.95649 z M 779.56229,867.05382 c -10.76407,-6.65253 -15.6637,-3.12377 -9.50303,6.84438 2.46891,3.99475 7.62108,5.32753 11.44918,2.96159 4.50663,-2.78518 3.82057,-6.24199 -1.94615,-9.80597 z M 884.249,860.89666 c 2.34994,-3.80215 -0.34276,-4.92674 -6.3117,-2.63604 -11.62037,4.4591 -13.74647,9.26683 -4.09807,9.26683 3.47144,0 8.1559,-2.98377 10.40977,-6.63079 z M 756.35624,832.19984 c -4.82745,-2.82879 -10.85207,-18.97988 -13.38808,-35.89119 -3.3183,-22.12778 -6.40153,-28.20759 -10.99803,-21.68681 -4.31546,6.12193 -4.96939,2.53412 -2.0161,-11.06202 3.38089,-15.56481 2.55452,-18.33778 -3.64853,-12.24251 -11.11347,10.92052 -2.86172,60.42418 14.93505,89.59823 12.87328,21.10301 14.63751,22.01507 19.04037,9.843 3.05136,-8.43572 1.59453,-15.32432 -3.92468,-18.5587 z m 44.951,16.88178 c 8.34337,-10.63859 8.10612,-10.87586 -2.53252,-2.53247 -11.17317,8.76262 -14.72639,14.27077 -9.20577,14.27077 1.39283,0 6.67506,-5.28227 11.73829,-11.7383 z m 57.38712,-9.64215 c -2.1412,-5.35092 -3.73063,-3.76153 -4.05246,4.05246 -0.29111,7.07101 1.29404,11.03264 3.52297,8.80384 2.22886,-2.22895 2.46712,-8.01424 0.52922,-12.8563 z m -68.85818,2.15416 c 1.97532,-3.19617 -2.26381,-11.11013 -9.42035,-17.58669 -12.67372,-11.46956 -12.80036,-11.31997 -4.87253,5.75875 9.15165,19.71522 9.32805,19.86106 14.29288,11.82794 z m 92.82856,-13.46469 c 4.54191,-17.36846 -1.79442,-25.75636 -23.58892,-31.22644 -13.88122,-3.48394 -18.37866,-2.1642 -18.37866,5.39349 0,5.50335 6.03683,11.58482 13.41518,13.51429 8.17407,2.13753 13.41519,9.14918 13.41519,17.94717 0,16.82557 10.26327,13.00933 15.13721,-5.62851 z m 76.64348,-49.05774 c -2.14119,-5.35092 -3.73062,-3.76154 -4.05244,4.05246 -0.29113,7.07086 1.29402,11.03263 3.52295,8.80368 2.22887,-2.22895 2.46712,-8.01424 0.52922,-12.85614 z m -78.36552,0.0839 c 0,-3.04373 -7.54604,-5.53408 -16.76897,-5.53408 -9.22295,0 -18.95734,-0.22603 -21.63199,-0.50302 -2.67465,-0.27638 -5.6832,1.98719 -6.68565,5.03077 -1.00245,3.04358 8.73194,5.76011 21.63197,6.03695 12.90005,0.27699 23.45464,-1.98704 23.45464,-5.03062 z M 774.47687,768.59044 c 8.34337,-10.63859 8.10612,-10.87586 -2.53252,-2.53247 -6.45605,5.06314 -11.73828,10.34541 -11.73828,11.73815 0,5.52074 5.50821,1.9674 14.2708,-9.20568 z m 173.54175,-7.546 c 0,-38.56073 -7.45067,-60.50065 -19.03588,-56.05498 -11.37695,4.36576 -54.74763,45.3751 -54.74763,51.7669 0,2.03785 7.26144,1.88271 16.13659,-0.34474 12.47914,-3.13216 17.14246,-0.88058 20.57472,9.93353 2.89601,9.12444 10.10815,13.98359 20.75523,13.98359 13.50059,0 16.31697,-3.32852 16.31697,-19.2843 z m 24.70479,4.61138 c -2.1412,-5.35077 -3.73062,-3.76153 -4.05246,4.05261 -0.29111,7.07086 1.29403,11.03249 3.52296,8.80369 2.22886,-2.22895 2.46712,-8.01424 0.52923,-12.8563 z M 763.55987,753.49829 c 0,-4.91883 -3.77303,-10.20105 -8.38449,-11.73822 -4.9877,-1.66255 -8.38449,3.09293 -8.38449,11.73822 0,8.64541 3.39679,13.40084 8.38449,11.7383 4.61146,-1.53707 8.38449,-6.81935 8.38449,-11.7383 z m 95.39502,-13.13925 c 0.52989,-7.03418 7.67978,-19.5058 15.88874,-27.71475 l 14.92532,-14.92534 -3.88537,14.85786 c -3.19421,12.21465 -2.20257,13.46119 5.57434,7.00689 5.20296,-4.31802 7.94005,-10.31004 6.08251,-13.31558 -3.2955,-5.33226 22.26781,-17.02997 31.7909,-14.54749 2.63414,0.68666 3.21093,-2.86468 1.28182,-7.89189 -1.9291,-5.0272 -15.22059,-14.42226 -29.53661,-20.8779 -35.92103,-16.1981 -97.01276,-11.62059 -126.66051,9.4905 l -21.80449,15.52612 15.5355,16.91661 c 10.73215,11.6861 12.94317,17.84186 7.15111,19.9092 -14.38309,5.13367 -9.16385,15.32464 6.61509,12.91662 10.63508,-1.62304 15.38909,-7.35669 16.33822,-19.7049 1.03598,-13.47836 -1.08744,-16.48477 -9.39231,-13.29786 -7.12903,2.73563 -9.10301,1.48372 -5.88102,-3.72962 3.14814,-5.09374 -0.38903,-7.84749 -10.07896,-7.84749 -8.21095,0 -13.1682,-1.76074 -11.01621,-3.91274 2.152,-2.15206 6.42809,-3.91789 9.50245,-3.9242 3.07428,-0.006 9.53296,-3.2841 14.35257,-7.28404 4.81966,-3.99994 8.23524,-4.49785 7.59016,-1.10649 -2.93375,15.42479 1.44382,17.37636 13.83107,6.16609 8.14704,-7.37298 13.41518,-8.9828 13.41518,-4.09934 0,4.42264 3.77301,7.42483 8.38448,6.6715 4.61148,-0.7534 17.33745,2.30607 28.28001,6.79868 15.82402,6.49677 17.88298,9.42624 10.06139,14.31508 -7.00849,4.38065 -13.27016,1.86087 -21.79277,-8.76958 -11.85425,-14.78615 -11.9171,-14.68217 -7.20166,11.91403 2.61636,14.7567 4.42519,31.94093 4.01972,38.18712 -0.41386,6.37818 2.85823,9.97708 7.46434,8.20948 4.51086,-1.73088 8.63508,-8.90237 9.16499,-15.93657 z m 35.40299,-54.14709 c 0,-3.57341 4.52763,-6.49711 10.0614,-6.49711 5.53376,0 10.06137,1.1863 10.06137,2.63616 0,1.44991 -4.52761,4.37355 -10.06137,6.4971 -5.53377,2.12349 -10.0614,0.93719 -10.0614,-2.63615 z m 67.04418,35.67808 c -7.30865,-11.39815 -7.49794,-11.38352 -3.82856,0.2958 2.12316,6.75776 4.09861,15.81302 4.38986,20.12277 0.38233,5.65558 1.44743,5.57321 3.8285,-0.29579 1.81445,-4.47249 -0.16099,-13.52775 -4.3898,-20.12278 z m -221.42147,3.1012 c -0.0805,-11.78328 -1.45372,-12.95638 -6.26501,-5.35098 -3.38928,5.35762 -4.67413,12.14906 -2.85522,15.09208 5.81797,9.41363 9.22581,5.77376 9.12023,-9.7411 z m 83.01946,-21.79967 c 2.12349,-5.53376 0.93719,-10.06139 -2.63615,-10.06139 -3.57339,0 -6.49711,4.52763 -6.49711,10.06139 0,5.53377 1.18632,10.06138 2.63616,10.06138 1.4499,0 4.37355,-4.52761 6.4971,-10.06138 z m 356.60885,146.83329 c 9.0614,-5.93727 14.8112,-13.48777 12.7772,-16.77881 -3.8437,-6.21921 -35.8509,13.70121 -36.2214,22.54326 -0.316,7.53551 5.225,6.1732 23.4442,-5.76445 z m -5.905,-56.97636 c -17.2426,-21.4461 -21.6468,-18.303 -26.2732,18.75025 l -3.5105,28.11617 22.0899,-14.48031 22.09,-14.48031 -14.3962,-17.9058 z M 632.72126,751.06775 c 4.11195,-40.07332 5.87618,-74.46058 3.92052,-76.41624 -1.95567,-1.95568 -7.69978,-0.11676 -12.76472,4.08699 -12.76123,10.59088 -21.01176,142.49045 -9.36588,149.73023 10.13451,6.30015 9.22461,10.1678 18.21008,-77.40098 z m -399.06108,24.80234 53.66072,-50.75865 -26.34573,3.90395 c -49.78634,7.37727 -118.52094,62.70151 -108.93522,87.68147 7.68262,20.02053 28.08031,9.81751 81.62023,-40.82677 z m 364.90034,-59.59872 c 0.36482,-18.63034 4.43638,-37.80224 9.04785,-42.60428 4.61148,-4.80202 -18.08479,8.91238 -50.43611,30.47649 -32.35133,21.56409 -55.37018,40.35755 -51.15298,41.76327 4.21718,1.40576 24.64963,19.53554 45.40542,40.28856 l 37.73779,37.73284 4.36734,-36.89183 c 2.40204,-20.29048 4.66585,-52.13472 5.03069,-70.76505 z m -463.33498,52.4763 c 29.06501,-13.74512 47.84711,-40.66953 34.23788,-49.08046 -27.06669,-16.72811 -107.779351,31.07693 -97.536431,57.76948 4.742293,12.35823 24.538588,9.6408 63.298551,-8.68902 z m 122.76679,6.55045 c 8.34339,-10.63859 8.10613,-10.87586 -2.53249,-2.53247 -6.45606,5.06314 -11.73828,10.34542 -11.73828,11.7383 0,5.52059 5.50818,1.9674 14.27077,-9.20583 z M 1396.2654,631.38858 c 65.2066,-114.13042 31.4403,-193.94649 -92.7445,-219.22709 -40.3695,-8.21812 -118.8872,-11.54302 -125.1314,-5.2988 -2.1577,2.15772 -1.9933,14.20996 0.3655,26.78273 l 4.2885,22.85959 64.0662,7.27747 c 99.7583,11.3319 143.6099,44.14459 143.6099,107.4588 0,14.48937 -4.3004,36.63674 -9.5566,49.21639 -11.6833,27.96202 -61.5671,95.77687 -90.1519,122.55747 -11.5655,10.83538 -20.9091,22.90913 -20.7637,26.83029 0.481,12.95567 105.3241,-102.23663 126.018,-138.45685 z m -45.237,9.53256 c 40.6842,-67.12871 28.464,-119.80855 -34.0923,-146.96719 -12.9121,-5.60575 -50.9077,-11.76472 -84.4346,-13.68659 l -60.9581,-3.49428 -4.4766,109.85544 c -2.4622,60.4205 -5.5367,115.89229 -6.8321,123.27064 -1.2954,7.37835 -1.0581,9.64216 0.5272,5.03069 4.8971,-14.24237 17.3839,-9.2322 51.603,20.70493 l 32.9347,28.81356 41.4031,-42.85282 c 22.7717,-23.56906 51.7181,-59.87252 64.3253,-80.67438 z m -957.15236,10.20225 c 12.18357,-9.10415 11.69067,-11.39059 -13.39957,-62.15727 -22.44033,-45.40488 -26.05061,-58.95209 -26.06405,-97.80254 -0.0135,-38.85331 2.30611,-47.58442 16.75337,-63.06199 29.75318,-31.87504 51.90157,-39.32046 114.02905,-38.33213 33.14413,0.52728 75.97041,6.27459 102.29076,13.72752 24.90192,7.05129 45.27624,10.29176 45.27624,7.20105 0,-3.09074 -15.84669,-10.1957 -35.21486,-15.7888 -158.83565,-45.86827 -274.43105,-24.5798 -300.82724,55.40142 -14.44365,43.7647 7.14745,132.65176 48.78854,200.85441 13.87396,22.72373 17.90672,22.72023 48.36776,-0.0415 z m 121.72162,-56.43136 c 33.08232,-18.13015 72.5119,-38.3585 87.62129,-44.9519 22.19825,-9.68678 26.93285,-14.80649 24.66482,-26.67093 -1.54376,-8.07564 1.47329,-33.20981 6.70454,-55.85373 6.56088,-28.39932 7.19369,-40.28137 2.03998,-38.30371 -4.10928,1.57688 -31.29046,-3.22483 -60.40263,-10.67048 -61.82492,-15.81215 -128.94721,-17.49334 -161.15425,-4.03639 -55.71062,23.27738 -61.08393,79.97667 -16.27452,171.72918 27.61873,56.55261 29.9003,59.2497 42.91041,50.72514 7.55739,-4.9518 40.80807,-23.83703 73.89036,-41.96718 z m 526.32724,37.91938 c 0,-9.63852 -16.5289,-24.33969 -57.09643,-50.78299 -84.48339,-55.06904 -94.38964,-43.36187 -13.04204,15.41301 36.73157,26.53913 67.53927,48.40655 68.46157,48.59428 0.9223,0.18775 1.6769,-5.7632 1.6769,-13.2243 z m 12.3639,-76.53543 c -1.3847,-27.42054 -4.6195,-51.95738 -7.1884,-54.5263 -2.569,-2.56892 -31.3801,2.29768 -64.02477,10.81466 l -59.354,15.48543 30.59433,16.20935 c 16.82694,8.91514 44.17728,26.26557 60.77854,38.55653 16.6013,12.29094 32.7778,22.56513 35.948,22.83151 3.1701,0.26636 4.6309,-21.95065 3.2463,-49.37118 z m -323.04155,-64.67328 18.89742,-7.21864 -16.76897,-9.31829 c -25.11241,-13.95466 -30.60458,-12.01759 -38.45555,13.56322 -6.63321,21.6129 -6.25013,22.86542 5.13063,16.77462 6.76448,-3.62025 20.80293,-9.83066 31.19647,-13.80091 z m 223.78602,-70.35105 c 42.25662,-10.12331 77.47363,-18.83792 78.26003,-19.36577 3.8868,-2.60885 -18.7302,-74.07445 -33.99381,-107.4146 -41.89059,-91.50115 -92.07819,-118.61744 -148.5773,-80.27614 -30.81313,20.91037 -43.28832,35.17358 -73.92872,84.52473 -26.49639,42.6766 -66.80861,135.82578 -55.85049,129.05325 9.45314,-5.84237 72.80104,24.14236 72.80104,34.45922 0,5.53737 13.29712,3.2557 42.22952,-7.24618 23.22617,-8.43067 76.80305,-23.6112 119.05973,-33.73451 z M 1167.1038,449.98 c -1.8607,-4.61147 -3.3832,-0.83844 -3.3832,8.38449 0,9.22293 1.5225,12.99596 3.3832,8.38449 1.8608,-4.61146 1.8608,-12.1575 0,-16.76898 z m -400.19014,8.99189 c -5.53376,-3.13074 -17.60743,-7.72287 -26.83037,-10.20473 -16.1125,-4.33582 -16.25927,-4.105 -3.74867,5.89622 7.16117,5.72479 19.23482,10.31691 26.83037,10.20472 11.02936,-0.16285 11.78417,-1.35012 3.74867,-5.89621 z M 1153.8283,316.24741 c -2.1412,-5.35086 -3.7306,-3.76146 -4.0524,4.0525 -0.2911,7.07092 1.294,11.0326 3.5229,8.80372 2.2289,-2.22888 2.4672,-8.01418 0.5293,-12.85622 z m 28.6033,-30.60338 c 10.4436,-37.60576 8.499,-82.64976 -4.6884,-108.59891 -12.9689,-25.519 -20.4117,-30.00266 -34.754,-20.93623 -8.2248,5.19925 -7.4992,14.84868 5.0307,66.90434 8.0529,33.45587 14.6416,66.89382 14.6416,74.30655 0,22.41288 12.3246,15.13426 19.7701,-11.67575 z m -35.3108,-9.64217 c -2.1412,-5.35086 -3.7307,-3.76146 -4.0525,4.05251 -0.2911,7.07092 1.294,11.03259 3.523,8.80371 2.2288,-2.22887 2.4671,-8.01417 0.5292,-12.85622 z m 99.7279,-82.37177 c 15.6578,-37.47454 8.0874,-88.07787 -14.2786,-95.442624 -18.7546,-6.17558 -31.3589,77.053284 -16.0119,105.729544 10.1888,19.03788 19.3357,15.93151 30.2905,-10.28692 z m 47.0068,-79.89605 c 5.2672,-20.986284 1.3165,-51.150354 -6.942,-53.002854 -9.9878,-2.24039 -19.4199,31.29959 -14.4125,51.250414 5.5293,22.0304 16.0484,22.89365 21.3545,1.75244 z"
     inkscape:connector-curvature="0" />
</svg>
