<?xml version="1.0" encoding="UTF-8" standalone="no"?>
<!-- Created with Inkscape (http://www.inkscape.org/) -->

<svg
   xmlns:dc="http://purl.org/dc/elements/1.1/"
   xmlns:cc="http://creativecommons.org/ns#"
   xmlns:rdf="http://www.w3.org/1999/02/22-rdf-syntax-ns#"
   xmlns:svg="http://www.w3.org/2000/svg"
   xmlns="http://www.w3.org/2000/svg"
   xmlns:sodipodi="http://sodipodi.sourceforge.net/DTD/sodipodi-0.dtd"
   xmlns:inkscape="http://www.inkscape.org/namespaces/inkscape"
   id="svg3036"
   version="1.1"
   inkscape:version="0.48.4 r9939"
   width="100.0005"
   height="100.04672"
   sodipodi:docname="buzzconf-logo-bold.svg">
  <metadata
     id="metadata3042">
    <rdf:RDF>
      <cc:Work
         rdf:about="">
        <dc:format>image/svg+xml</dc:format>
        <dc:type
           rdf:resource="http://purl.org/dc/dcmitype/StillImage" />
        <dc:title></dc:title>
      </cc:Work>
    </rdf:RDF>
  </metadata>
  <defs
     id="defs3040" />
  <sodipodi:namedview
     pagecolor="#ffffff"
     bordercolor="#666666"
     borderopacity="1"
     objecttolerance="10"
     gridtolerance="10"
     guidetolerance="10"
     inkscape:pageopacity="0"
     inkscape:pageshadow="2"
     inkscape:window-width="1043"
     inkscape:window-height="963"
     id="namedview3038"
     showgrid="false"
     inkscape:zoom="2.6398653"
     inkscape:cx="45.461148"
     inkscape:cy="21.261394"
     inkscape:window-x="807"
     inkscape:window-y="68"
     inkscape:window-maximized="0"
     inkscape:current-layer="svg3036"
     fit-margin-top="0"
     fit-margin-left="0"
     fit-margin-right="0"
     fit-margin-bottom="0" />
  <path
     style="opacity:1;fill:none;stroke:#ffffff;stroke-width:1;stroke-miterlimit:4;stroke-opacity:0.94117647000000004;stroke-dasharray:none"
     d="m 78.2434,99.199703 c -0.141566,-0.3689 -0.1541,-0.9399 -0.02786,-1.2689 0.126247,-0.329 -0.584366,-1.4121 -1.57914,-2.4069 -1.901753,-1.9017 -2.260266,-3.2183 -1.131506,-4.155 0.584953,-0.4855 0.43958,-0.7368 -1.067594,-1.8452 -2.090433,-1.5373 -3.186953,-3.1028 -3.186953,-4.55 0,-0.8288 -0.399013,-1.2225 -1.79418,-1.7706 -0.9868,-0.3876 -1.68856,-0.5338 -1.559467,-0.325 0.129094,0.2089 -0.452486,1.552 -1.292407,2.9846 -4.442814,7.5782 -10.242733,10.9961 -15.155699,8.9313 -1.975662,-0.8303 -4.915743,-4.1447 -6.551976,-7.386 -1.55365,-3.0778 -3.740232,-10.2083 -3.461545,-11.2883 0.168512,-0.653 -0.0096,-0.6618 -1.880056,-0.092 -7.228547,2.2015 -20.016747,3.0578 -25.337032,1.6967 -5.0362676,-1.2885 -7.8298988,-4.0376 -8.1610656,-8.031 -0.258468,-3.1168 0.6159626,-5.6014 3.4750913,-9.874 l 2.1141903,-3.1594 -1.326056,-0.761 c -1.1093489,-0.6367 -1.2936036,-0.9822 -1.1274723,-2.1141 0.161244,-1.0986 0.065473,-1.2991 -0.50934,-1.0662 -2.8359821,1.1491 -5.6997772,0.4866 -5.2546329,-1.2156 0.1731937,-0.6623 0.064365,-0.7277 -0.6102726,-0.3666 -1.230985,0.6588 -2.66854145,0.5342 -2.66854145,-0.2314 0,-0.3797 0.40075329,-0.6707 0.92374325,-0.6707 1.6649102,0 3.7839486,-1.4923 3.2790611,-2.3092 -0.2690496,-0.4354 -2.400964,0.37 -3.41943374,1.2917 -0.72206793,0.6534 -0.78337061,0.6375 -0.78337061,-0.2038 0,-0.9726 2.30508155,-2.3561 3.92558825,-2.3561 0.9737632,0 2.0541607,1.026 1.5798629,1.5003 -0.1650193,0.165 0.3335953,-0.016 1.1080331,-0.4024 4.351325,-2.1708 7.547879,-0.5738 4.905458,2.4507 -0.748713,0.8569 -0.607462,0.7973 0.558966,-0.2361 0.858473,-0.7606 2.218411,-1.6417 3.022083,-1.958 1.859707,-0.7321 4.968325,-0.8246 5.378946,-0.1602 0.217738,0.3523 0.689585,0.2106 1.52975,-0.4593 l 1.214895,-0.9687 -2.296711,-4.6061 c -2.036742,-4.0846 -2.319521,-5 -2.498239,-8.0873 -0.306099,-5.2877 1.377821,-7.9677 5.942281,-9.4575 4.493007,-1.4664 18.127562,0.4457 18.701501,2.6227 0.128402,0.487 0.220447,0.3583 0.258053,-0.3609 0.178118,-3.4063 5.50511,-16.3645 8.552959,-20.8055002 1.739824,-2.5352 4.875413,-5.57769997 5.748268,-5.57769997 0.467657,0 -0.336704,1.11559997 -2.208596,3.06319997 -3.336204,3.4712 -6.199249,8.5774002 -8.744016,15.5950002 -1.603838,4.4229 -4.317427,14.9091 -3.952537,15.274 0.51425,0.5142 2.357333,-0.9079 2.63771,-2.0353 0.851673,-3.4246 4.16301,-10.8634 6.174593,-13.871 3.537896,-5.2896 7.443848,-7.1542 11.064427,-5.2819 2.490613,1.2879 5.199546,5.9737 6.645866,11.4955 2.907847,11.1019 2.329013,30.8323 -1.293673,44.0973 -0.491634,1.8002 -0.787247,3.4456 -0.656914,3.6565 0.2702,0.4372 3.32824,1.5186 3.580627,1.2662 0.359127,-0.3591 2.40968,-7.9886 3.284447,-12.2204 3.421966,-16.5543 3.338,-35.6638 -0.210787,-47.9726 C 72.69312,8.3284028 70.569774,4.0565028 68.47774,1.9008028 67.089227,0.47010283 66.935734,0.15100283 67.635887,0.15100283 c 1.478013,0 4.5847,4.51919997 6.14526,8.93929997 0.565247,1.6009002 1.031967,2.4983002 1.037153,1.9941002 0.01914,-1.8587002 2.363427,-2.7022002 3.72522,-1.3404002 0.74748,0.7474002 1.203114,0.4648002 1.203114,-0.7462 0,-0.4632 0.313346,-1.448 0.696326,-2.1886 0.552954,-1.0693 0.94426,-1.3179 1.90048,-1.2075 0.98874,0.1141 1.29088,-0.101 1.68894,-1.2025 0.5287,-1.4631 2.26504,-2.0839 2.923394,-1.0453 0.531093,0.8379 0.4857,4.2843 -0.07011,5.3228 -0.254593,0.4757 -0.85828,0.865 -1.341513,0.865 -0.642047,0 -0.878613,0.3048 -0.878613,1.1323002 0,1.6136 -1.16794,4.1952 -2.05132,4.5342 -0.412607,0.1583 -1.125987,0.053 -1.5853,-0.2337 -0.759634,-0.4744 -0.835334,-0.3696 -0.837607,1.1592 -0.004,2.6104 -0.811767,4.9065 -2.076307,5.9012 -0.96236,0.757 -1.107546,1.1497 -0.875613,2.368 l 0.278033,1.4606 4.356607,0.072 c 16.55848,0.2739 19.256939,10.7664 6.220453,24.187 -1.254253,1.2912 -2.582886,2.3476 -2.952506,2.3476 -0.3881,0 0.376546,1.0864 1.809813,2.5713 7.783713,8.0641 12.945927,16.4377 12.887833,20.9053 l -0.02907,2.2359 -0.628507,-2.3334 c -1.81496,-6.7381 -8.96504,-16.7664 -17.398653,-24.4023 -3.245407,-2.9384 -3.3615,-3.0002 -3.629507,-1.9324 -0.227593,0.9068 0.25446,1.7255 2.70892,4.6006 6.056547,7.0946 8.79498,12.2646 8.88502,16.7744 0.05853,2.9312 -0.794113,4.4328 -3.307987,5.8258 -2.42958,1.3462 -9.5757,0.9145 -15.18948,-0.9177 -10.585407,-3.4549 -23.708375,-11.668 -33.596557,-21.0268 l -4.306742,-4.0762 -1.645524,1.3077 -1.645524,1.3077 4.389654,4.3872 c 13.320812,13.3133 31.668234,24.513 46.456453,28.3582 5.500827,1.4303 12.140427,1.4696 14.749067,0.087 2.190473,-1.1607 2.793627,-1.8421 3.57908,-4.0432 l 0.599887,-1.6812 0.01963,1.8352 c 0.02218,2.074 -1.081847,3.5789 -3.608107,4.9182 -1.842646,0.9769 -9.598633,1.4133 -12.225806,0.6879 -1.31944,-0.3643 -1.609234,-0.3542 -1.212774,0.042 0.678567,0.6786 0.669207,2.6979 -0.0157,3.3828 -0.295133,0.2952 -0.913146,0.5366 -1.373353,0.5366 -0.667087,0 -0.51294,0.3054 0.760193,1.5061 1.714007,1.6166 2.160194,3.6719 0.90192,4.1548 -0.590186,0.2265 -0.5447,0.4267 0.30154,1.3275 0.910634,0.9693 0.9254,1.0607 0.17126,1.0607 -0.453906,0 -1.142973,-0.278 -1.53126,-0.6178 -0.388286,-0.3399 -1.188193,-0.7652 -1.77758,-0.9453 -0.93444,-0.2855 -1.039966,-0.2064 -0.824413,0.6179 0.286413,1.095197 -0.76306,1.340997 -1.172307,0.2745 z m 4.386454,-2.8688 c 0.460673,-0.7454 -1.98168,-3.0913 -4.034627,-3.8753 -2.507627,-0.9577 -3.418747,-0.4156 -2.26388,1.3469 1.297493,1.9803 5.575853,3.6977 6.298507,2.5284 z m -25.018272,-2.6615 c 2.72343,-1.2415 4.636613,-3.072 7.008784,-6.7058 1.187042,-1.8184 2.158254,-3.4443 2.158254,-3.6131 0,-0.1688 -0.752084,-0.6656 -1.671296,-1.104 -1.580385,-0.7536 -1.69593,-0.7549 -2.12407,-0.024 -2.649969,4.5213 -6.085159,7.833 -8.813512,8.4966 -4.146381,1.0085 -8.534336,-4.2027 -10.649705,-12.6479 -0.517218,-2.0649 -1.539158,-2.7062 -1.068774,-0.6708 1.316292,5.696 4.25133,12.0871 6.584408,14.3376 2.941378,2.8373 5.382915,3.3873 8.575911,1.9318 z m 24.323872,-3.3565 c 0.6187,-0.7455 0.189126,-2.0689 -0.67154,-2.0689 -0.342594,0 -2.433954,-0.5824 -4.647467,-1.2943 -2.21352,-0.7118 -4.02458,-1.1537 -4.02458,-0.982 0,0.693 3.031073,3.1763 4.9189,4.0298 2.36394,1.0689 3.719213,1.1655 4.424687,0.3154 z m -25.529132,-1.7308 c 0.812782,-0.4887 2.248259,-1.9217 3.18996,-3.1846 1.684643,-2.2591 3.362663,-5.1927 3.078968,-5.3827 -0.07962,-0.053 -1.653976,-0.9746 -3.498563,-2.0471 -1.844587,-1.0725 -4.652753,-2.8166 -6.240363,-3.8758 -1.587611,-1.0591 -3.006212,-1.7321 -3.152442,-1.4955 -0.316469,0.5121 -5.104133,2.2102 -6.440039,2.2843 -0.680507,0.038 -0.735681,0.1051 -0.202055,0.247 0.478954,0.1273 0.992901,1.2255 1.478796,3.1599 1.412014,5.6212 4.033882,9.9615 6.70841,11.1052 1.571699,0.6721 2.986921,0.4461 5.077328,-0.8107 z m -23.571593,-12.1472 c 3.781482,-0.6808 14.66278,-3.6402 15.140338,-4.1178 0.57417,-0.5742 -1.601303,-1.5568 -2.884322,-1.3028 -8.997187,1.781 -15.416447,2.0649 -19.470323,0.861 -1.612039,-0.4787 -2.997208,-1.2983 -4.160879,-2.462 -1.66507,-1.6651 -1.735512,-1.8513 -1.549323,-4.0965 0.275329,-3.3201 1.867004,-6.1993 5.658072,-10.235 7.451125,-7.9318 21.134542,-15.9624 34.949913,-20.5116 2.828368,-0.9314 5.850795,-1.8262 6.716502,-1.9886 1.52816,-0.2866 1.56904,-0.3473 1.403167,-2.0867 -0.09397,-0.9853 -0.436714,-1.8935 -0.76166,-2.0182 -0.822607,-0.3156 -7.490704,1.4079 -13.618114,3.5199 -23.534109,8.112 -44.4722126,23.7447 -47.0136713,35.1011 -1.088917,4.8658 1.77904,8.3033 8.1335653,9.7487 3.513841,0.7993 11.818682,0.6035 17.456735,-0.4115 z m 52.440845,-0.434 c 0.811613,-0.3391 1.93156,-1.1943 2.488766,-1.9005 2.155674,-2.7319 0.39728,-8.6743 -4.516046,-15.262 l -2.258127,-3.0276 -1.547187,1.4591 c -0.85096,0.8026 -2.020026,1.5779 -2.597926,1.7229 -0.894407,0.2245 -1.163534,0.7735 -1.80882,3.6899 -1.290374,5.832 -2.900714,11.0049 -3.589234,11.5298 -0.54006,0.4117 -0.396233,0.5623 0.8024,0.8398 0.80322,0.1859 2.567154,0.5973 3.919847,0.9141 3.301113,0.7733 7.301973,0.7884 9.106327,0.034 z m -18.785579,-3.6398 c -0.143309,-0.3735 -0.0123,-1.6311 0.291179,-2.7948 0.30346,-1.1637 0.69822,-2.7279 0.877246,-3.476 l 0.325507,-1.3601 -4.416613,2.2429 -4.416617,2.243 3.70217,1.8895 c 2.036192,1.0393 3.746163,1.8997 3.799931,1.912 0.05376,0.012 -0.0195,-0.2831 -0.162803,-0.6565 z m -27.196666,-1.3578 c 0.817182,-0.2273 0.89994,-0.5712 0.809995,-3.3662 l -0.100181,-3.113 -4.794584,-4.5737 c -2.637023,-2.5155 -5.138568,-5.1372 -5.558992,-5.8261 l -0.764406,-1.2525 -2.562835,2.8176 c -9.350702,10.2802 -6.487566,16.4149 7.365515,15.7818 2.582422,-0.1181 5.104892,-0.3286 5.605488,-0.4679 z m 6.795559,-1.2425 c 0.784583,0 0.811539,0.029 -1.526075,-1.6496 -1.494234,-1.0731 -2.005967,-1.2762 -1.788692,-0.71 0.167391,0.4362 0.304348,1.2836 0.304348,1.883 0,0.964 0.141178,1.0545 1.221729,0.7833 0.671953,-0.1687 1.476864,-0.3067 1.78869,-0.3067 z m -4.184445,-1.5552 c -0.301276,-1.2802 -1.061839,-2.4056 -1.061839,-1.5713 0,1.3182 0.602873,3.2321 0.950433,3.0173 0.216902,-0.134 0.267035,-0.7847 0.111406,-1.446 z m 25.458291,-5.0315 c 0.1489,-0.5694 -0.916262,-0.2254 -4.420871,1.4277 -2.539373,1.1978 -4.878131,2.1843 -5.197247,2.1921 -0.363247,0.01 -0.269444,0.2496 0.250846,0.6437 0.740827,0.5612 1.283802,0.4046 5.001086,-1.4419 2.293518,-1.1393 4.258299,-2.409 4.366186,-2.8216 z m -9.080393,2.2558 c 0.860807,-0.3264 3.595045,-1.5494 6.07608,-2.7179 l 4.510979,-2.1244 0.527434,-3.7703 c 0.290093,-2.0737 0.643133,-5.6608 0.784546,-7.9715 l 0.2571,-4.2012 -1.35582,-0.6707 c -2.43018,-1.2023 -9.905973,-6.7589 -9.905973,-7.3629 0,-0.4209 -0.923511,-0.2173 -3.242002,0.715 -5.443041,2.1886 -12.89255,5.9019 -12.42273,6.1922 0.284792,0.176 0.30161,1.1468 0.047,2.7126 -0.218087,1.3411 -0.541981,4.2997 -0.719766,6.5747 -0.177785,2.275 -0.516115,4.1364 -0.751843,4.1364 -0.710585,0 4.503432,4.1643 9.19748,7.3457 3.643626,2.4696 4.494181,2.8778 4.918901,2.3608 0.282434,-0.3437 1.217811,-0.8921 2.078619,-1.2185 z m -6.546188,-5.7899 c -5.323502,-3.0533 -6.176172,-10.6354 -1.671103,-14.8599 4.718884,-4.4249 12.232053,-2.9221 14.97145,2.9947 2.021647,4.3666 0.21366,9.7318 -4.025752,11.9465 -3.295019,1.7214 -6.175594,1.6961 -9.274595,-0.081 z m 3.691701,0.1116 c -0.17628,-0.1763 1.114454,-0.5623 2.8683,-0.8578 2.988254,-0.5035 4.905088,-1.4981 4.905088,-2.545 0,-0.2499 0.333026,-0.8224 0.740065,-1.2722 0.407035,-0.4498 0.524417,-0.8178 0.260849,-0.8178 -0.263568,0 -0.559667,0.2414 -0.658001,0.5364 -0.111823,0.3355 -0.287996,0.2517 -0.470398,-0.2236 -0.203947,-0.5315 -0.06057,-0.764 0.476896,-0.7735 0.715665,-0.013 0.714457,-0.045 -0.01757,-0.4714 -0.861153,-0.5015 -1.841065,-0.1482 -1.430672,0.5159 0.1415,0.2289 0.06094,0.4162 -0.17903,0.4162 -0.239966,0 -0.528527,-0.2515 -0.641254,-0.5589 -0.158581,-0.4325 -0.344073,-0.4177 -0.819816,0.066 -0.338174,0.3435 -0.387014,0.4972 -0.108534,0.3415 0.331101,-0.1851 0.483708,0.1668 0.440962,1.0167 -0.06409,1.2745 -1.81819,3.1597 -2.939892,3.1597 -0.804858,0 -1.846649,-2.8187 -1.21035,-3.2748 0.310612,-0.2226 0.04573,-0.2975 -0.657969,-0.1859 -1.105586,0.1752 -1.155383,0.1082 -0.811292,-1.0916 0.222687,-0.7765 0.202341,-1.1767 -0.05184,-1.0196 -0.230137,0.1422 -0.43432,0.5989 -0.453737,1.0148 -0.01959,0.4198 -0.131585,0.5196 -0.251758,0.2244 -0.119055,-0.2924 0.102626,-1.0187 0.492619,-1.6139 0.389992,-0.5952 0.58237,-1.4124 0.427506,-1.8159 -0.154865,-0.4036 -0.08672,-0.7338 0.15143,-0.7338 0.238151,0 0.3333,-0.5216 0.211437,-1.159 -0.121859,-0.6375 -0.345491,-0.9695 -0.496952,-0.7377 -0.151467,0.2317 -0.710003,0.65 -1.241195,0.9296 -0.620153,0.3263 -0.889548,0.7999 -0.752726,1.3231 0.146195,0.559 -0.147222,0.979 -0.934676,1.3377 -0.631269,0.2877 -1.150844,0.8795 -1.154609,1.3151 -0.0057,0.6623 -0.07504,0.6843 -0.422859,0.1344 -0.598434,-0.9463 -0.793839,-0.4488 -0.433986,1.105 0.170887,0.7378 0.334512,1.0128 0.363614,0.6111 0.06702,-0.9253 1.785247,-1.4021 2.495,-0.6924 0.295018,0.295 0.44381,0.8142 0.330658,1.1536 -0.124578,0.3738 -0.0064,0.4941 0.299444,0.305 0.816247,-0.5044 0.579706,0.6227 -0.389161,1.8544 -1.189694,1.5125 -1.142629,1.7017 0.558966,2.2476 1.908448,0.6122 1.875465,0.607 1.505447,0.237 z m -1.289315,-10.4672 c 0.303335,-0.3056 0.664159,-0.443 0.801839,-0.3053 0.13768,0.1377 -0.110501,0.3878 -0.551512,0.5557 -0.637311,0.2426 -0.688672,0.1913 -0.250327,-0.2504 z m 5.038148,10.3171 c 0.480607,-0.3274 0.163691,-0.372 -1.117933,-0.1574 -2.218298,0.3714 -2.575338,0.6302 -0.857082,0.6211 0.717341,0 1.606097,-0.2124 1.975015,-0.4637 z m -7.205867,-1.7969 c -0.717605,-0.4435 -1.044247,-0.2082 -0.633536,0.4563 0.164594,0.2664 0.508072,0.3552 0.763279,0.1975 0.300442,-0.1857 0.254705,-0.4162 -0.129743,-0.6538 z m 6.979114,-0.4104 c 0.156662,-0.2535 -0.02285,-0.3285 -0.42078,-0.1758 -0.774692,0.2973 -0.916432,0.6178 -0.273205,0.6178 0.231429,0 0.543727,-0.1989 0.693985,-0.442 z m -8.526184,-1.9132 c -0.32183,-0.1885 -0.723472,-1.2653 -0.892539,-2.3927 -0.22122,-1.4752 -0.426769,-1.8805 -0.733202,-1.4458 -0.287698,0.4081 -0.331293,0.169 -0.134407,-0.7375 0.225393,-1.0376 0.170301,-1.2225 -0.243235,-0.8161 -0.740898,0.728 -0.190782,4.0283 0.99567,5.9732 0.858219,1.4069 0.975834,1.4677 1.269358,0.6562 0.203424,-0.5624 0.106302,-1.0216 -0.261645,-1.2373 z m 2.996733,1.1255 c 0.556225,-0.7092 0.540408,-0.7251 -0.168835,-0.1688 -0.744878,0.5841 -0.981759,0.9513 -0.613718,0.9513 0.09286,0 0.445004,-0.3521 0.782553,-0.7825 z m 3.825808,-0.6428 c -0.142747,-0.3567 -0.248709,-0.2508 -0.270164,0.2701 -0.01941,0.4714 0.08627,0.7356 0.234865,0.587 0.14859,-0.1486 0.164474,-0.5343 0.03528,-0.8571 z m -4.590545,0.1436 c 0.131688,-0.2131 -0.150921,-0.7407 -0.628024,-1.1725 -0.844914,-0.7646 -0.853357,-0.7546 -0.324835,0.384 0.61011,1.3143 0.62187,1.324 0.952859,0.7885 z m 6.18857,-0.8977 c 0.302794,-1.1578 -0.119628,-1.717 -1.572594,-2.0817 -0.925415,-0.2323 -1.225244,-0.1443 -1.225244,0.3596 0,0.3668 0.402455,0.7723 0.894345,0.9009 0.544938,0.1425 0.894346,0.61 0.894346,1.1965 0,1.1217 0.684218,0.8673 1.009147,-0.3753 z m 5.109566,-3.2705 c -0.142746,-0.3567 -0.248708,-0.2507 -0.270163,0.2702 -0.01941,0.4714 0.08627,0.7355 0.234863,0.5869 0.148592,-0.1486 0.164475,-0.5343 0.03528,-0.8571 z m -5.224368,0.01 c 0,-0.2029 -0.50307,-0.3689 -1.117932,-0.3689 -0.614863,0 -1.263822,-0.015 -1.442132,-0.034 -0.17831,-0.018 -0.37888,0.1324 -0.44571,0.3353 -0.06683,0.2029 0.582129,0.384 1.442131,0.4025 0.860003,0.018 1.563643,-0.1325 1.563643,-0.3354 z m -7.097722,-0.7043 c 0.556224,-0.7092 0.540408,-0.725 -0.168835,-0.1688 -0.430403,0.3375 -0.782552,0.6897 -0.782552,0.7825 0,0.3681 0.367214,0.1312 0.951387,-0.6137 z m 11.56945,-0.5031 c 0,-2.5707 -0.496712,-4.0333 -1.269059,-3.7369 -0.758463,0.291 -3.649842,3.025 -3.649842,3.4511 0,0.1358 0.484096,0.1255 1.075773,-0.023 0.831942,-0.2088 1.14283,-0.059 1.371648,0.6622 0.193067,0.6083 0.673876,0.9323 1.383682,0.9323 0.900039,0 1.087798,-0.2219 1.087798,-1.2857 z m 1.646986,0.3075 c -0.142747,-0.3567 -0.248708,-0.2508 -0.270164,0.2701 -0.01941,0.4714 0.08627,0.7355 0.234864,0.587 0.14859,-0.1486 0.164474,-0.5343 0.03528,-0.8571 z m -13.944236,-0.8105 c 0,-0.3279 -0.251536,-0.6801 -0.558966,-0.7826 -0.332514,-0.1108 -0.558966,0.2062 -0.558966,0.7826 0,0.5763 0.226452,0.8934 0.558966,0.7825 0.30743,-0.1024 0.558966,-0.4546 0.558966,-0.7825 z m 6.359668,-0.876 c 0.03533,-0.4689 0.511985,-1.3004 1.059249,-1.8476 l 0.995021,-0.995 -0.259024,0.9905 c -0.212948,0.8143 -0.146838,0.8974 0.371622,0.4671 0.346864,-0.2879 0.529337,-0.6873 0.405501,-0.8877 -0.2197,-0.3555 1.484521,-1.1353 2.119393,-0.9698 0.17561,0.046 0.214062,-0.191 0.08546,-0.5262 -0.128607,-0.3351 -1.014706,-0.9614 -1.969107,-1.3918 -2.394736,-1.0799 -6.467518,-0.7747 -8.444034,0.6327 l -1.453633,1.0351 1.0357,1.1277 c 0.715477,0.7791 0.862878,1.1895 0.476741,1.3273 -0.958873,0.3422 -0.610924,1.0216 0.441006,0.8611 0.709005,-0.1082 1.025939,-0.4904 1.089214,-1.3136 0.06907,-0.8986 -0.0725,-1.099 -0.626154,-0.8866 -0.475268,0.1824 -0.606867,0.099 -0.392068,-0.2486 0.209876,-0.3396 -0.02594,-0.5232 -0.67193,-0.5232 -0.547397,0 -0.87788,-0.1174 -0.734414,-0.2608 0.143466,-0.1435 0.428539,-0.2612 0.633496,-0.2616 0.204952,-4e-4 0.635531,-0.219 0.956838,-0.4856 0.321311,-0.2667 0.549016,-0.2999 0.506011,-0.074 -0.195583,1.0283 0.09625,1.1584 0.922071,0.4111 0.543136,-0.4916 0.894346,-0.5989 0.894346,-0.2733 0,0.2948 0.251534,0.495 0.558965,0.4447 0.307432,-0.05 1.15583,0.1538 1.885334,0.4533 1.054935,0.4331 1.192199,0.6284 0.670759,0.9543 -0.467232,0.2921 -0.884677,0.1241 -1.452851,-0.5846 -0.790283,-0.9858 -0.794473,-0.9788 -0.480111,0.7943 0.174424,0.9837 0.295013,2.1293 0.267982,2.5458 -0.02759,0.4252 0.190548,0.6651 0.497622,0.5473 0.300724,-0.1154 0.575672,-0.5935 0.611,-1.0625 z m 2.360199,-3.6098 c 0,-0.2382 0.301842,-0.4331 0.67076,-0.4331 0.368917,0 0.670758,0.079 0.670758,0.1757 0,0.097 -0.301841,0.2916 -0.670758,0.4332 -0.368918,0.1415 -0.67076,0.062 -0.67076,-0.1758 z m 4.469612,2.3786 c -0.487243,-0.7599 -0.499863,-0.7589 -0.255237,0.02 0.141544,0.4505 0.27324,1.0542 0.292657,1.3415 0.02549,0.377 0.09649,0.3715 0.255233,-0.02 0.120964,-0.2982 -0.01073,-0.9019 -0.292653,-1.3415 z m -14.761431,0.2067 c -0.0054,-0.7855 -0.09692,-0.8638 -0.417668,-0.3567 -0.225952,0.3571 -0.311609,0.8099 -0.190348,1.0061 0.387865,0.6276 0.615054,0.3849 0.608016,-0.6494 z m 5.53463,-1.4533 c 0.141566,-0.3689 0.06248,-0.6708 -0.175743,-0.6708 -0.238226,0 -0.433141,0.3019 -0.433141,0.6708 0,0.3689 0.07909,0.6707 0.175744,0.6707 0.09666,0 0.29157,-0.3018 0.43314,-0.6707 z m 23.773924,9.7889 c 0.604093,-0.3958 0.987413,-0.8992 0.851813,-1.1186 -0.256247,-0.4146 -2.39006,0.9134 -2.41476,1.5029 -0.02107,0.5023 0.348333,0.4115 1.562947,-0.3843 z m -0.393667,-3.7984 c -1.149507,-1.4298 -1.44312,-1.2202 -1.751547,1.25 l -0.234033,1.8744 1.47266,-0.9654 1.472667,-0.9653 -0.959747,-1.1937 z m -36.06551,-2.7988 c 0.27413,-2.6715 0.391746,-4.964 0.261368,-5.0944 -0.130378,-0.1304 -0.513318,-0.01 -0.850981,0.2725 -0.850749,0.706 -1.400784,9.4994 -0.624392,9.982 0.675634,0.42 0.614974,0.6779 1.214005,-5.1601 z m -26.604072,1.6535 3.577382,-3.3839 -1.756382,0.2603 c -3.31909,0.4918 -7.9013963,4.1801 -7.262348,5.8454 0.512174,1.3347 1.87202,0.6545 5.441348,-2.7218 z m 24.32669,-3.9732 c 0.02432,-1.242 0.295758,-2.5202 0.60319,-2.8403 0.307432,-0.3201 -1.205653,0.5942 -3.362408,2.0318 -2.156755,1.4376 -3.691345,2.6905 -3.410198,2.7842 0.281145,0.094 1.643308,1.3023 3.027028,2.6859 l 2.515852,2.5155 0.291156,-2.4595 c 0.160136,-1.3527 0.311057,-3.4756 0.33538,-4.7176 z m -30.8889989,3.4984 c 1.9376669,-0.9163 3.1898069,-2.7113 2.2825249,-3.272 -1.8044456,-1.1152 -7.1852897,2.0718 -6.5024284,3.8513 0.3161529,0.8238 1.6359059,0.6427 4.2199035,-0.5793 z m 8.1844529,0.4367 c 0.556226,-0.7092 0.540408,-0.7251 -0.168833,-0.1688 -0.430404,0.3375 -0.782552,0.6897 -0.782552,0.7825 0,0.3681 0.367212,0.1312 0.951385,-0.6137 z m 75.884871,-9.594 c 4.347107,-7.6087 2.09602,-12.9297 -6.182966,-14.6151 -2.6913,-0.5479 -7.925814,-0.7695 -8.342094,-0.3533 -0.143846,0.1439 -0.132886,0.9474 0.02437,1.7855 l 0.2859,1.524 4.27108,0.4852 c 6.650553,0.7554 9.573993,2.943 9.573993,7.1639 0,0.966 -0.286693,2.4425 -0.637106,3.2811 -0.778887,1.8641 -4.104474,6.3851 -6.010127,8.1705 -0.771033,0.7224 -1.39394,1.5273 -1.384247,1.7887 0.03207,0.8637 7.021607,-6.8158 8.4012,-9.2305 z m -3.0158,0.6355 c 2.71228,-4.4752 1.8976,-7.9872 -2.27282,-9.7978 -0.860806,-0.3737 -3.393846,-0.7843 -5.628973,-0.9124 l -4.063873,-0.233 -0.29844,7.3237 c -0.164147,4.0281 -0.369114,7.7262 -0.455474,8.2181 -0.08636,0.4919 -0.07054,0.6428 0.03515,0.3353 0.326473,-0.9494 1.158927,-0.6154 3.4402,1.3804 l 2.195647,1.9209 2.760206,-2.8569 c 1.518114,-1.5712 3.447874,-3.9915 4.288354,-5.3783 z m -63.810157,0.6802 c 0.812238,-0.607 0.779378,-0.7594 -0.893305,-4.1438 -1.496022,-3.027 -1.736707,-3.9302 -1.737603,-6.5202 -9e-4,-2.5902 0.15374,-3.1723 1.116891,-4.2041 1.983545,-2.125 3.460105,-2.6214 7.601937,-2.5555 2.209608,0.035 5.064694,0.4183 6.819384,0.9152 1.660128,0.47 3.018416,0.6861 3.018416,0.48 0,-0.206 -1.056446,-0.6797 -2.347658,-1.0526 -10.589043,-3.0578 -18.295403,-1.6386 -20.055149,3.6935 -0.96291,2.9176 0.476497,8.8434 3.252569,13.3903 0.924931,1.5149 1.193782,1.5146 3.224518,0 z m 8.114774,-3.7621 c 2.205488,-1.2087 4.834127,-2.5572 5.84142,-2.9968 1.479883,-0.6458 1.795523,-0.9871 1.644321,-1.7781 -0.102917,-0.5383 0.09822,-2.214 0.446969,-3.7235 0.437392,-1.8933 0.47958,-2.6855 0.135999,-2.5536 -0.273952,0.1051 -2.086031,-0.215 -4.026842,-0.7114 -4.121661,-1.0541 -8.596481,-1.1662 -10.743617,-0.2691 -3.714041,1.5518 -4.072262,5.3318 -1.084968,11.4486 1.841249,3.7702 1.993354,3.95 2.860694,3.3817 0.503826,-0.3301 2.720538,-1.5891 4.926024,-2.7978 z m 35.088483,2.5279 c 0,-0.6425 -1.101926,-1.6226 -3.806428,-3.3855 -5.632226,-3.6713 -6.292643,-2.8908 -0.86947,1.0275 2.448772,1.7693 4.502618,3.2272 4.564105,3.2397 0.06149,0.013 0.111793,-0.3842 0.111793,-0.8817 z m 0.82426,-5.1023 c -0.09231,-1.8281 -0.307966,-3.4638 -0.479226,-3.6351 -0.171267,-0.1713 -2.092007,0.1532 -4.268318,0.721 l -3.956934,1.0323 2.039622,1.0807 c 1.121796,0.5943 2.945152,1.751 4.051903,2.5704 1.106753,0.8194 2.185187,1.5043 2.396533,1.5221 0.21134,0.018 0.308727,-1.4634 0.21642,-3.2914 z m -21.536103,-4.3116 1.259828,-0.4812 -1.117932,-0.6212 c -1.67416,-0.9303 -2.040305,-0.8012 -2.563703,0.9042 -0.442214,1.4408 -0.416675,1.5243 0.342042,1.1183 0.450965,-0.2414 1.386862,-0.6554 2.079765,-0.9201 z m 14.919068,-4.69 c 2.817108,-0.6749 5.164909,-1.2559 5.217335,-1.2911 0.25912,-0.1739 -1.24868,-4.9383 -2.266254,-7.161 -2.792706,-6.1 -6.138546,-7.9078 -9.905153,-5.3517 -2.054209,1.394 -2.885888,2.3449 -4.928581,5.635 -1.766426,2.8451 -4.453908,9.055 -3.723367,8.6035 0.63021,-0.3895 4.853403,1.6095 4.853403,2.2973 0,0.3692 0.886475,0.2171 2.815302,-0.4831 1.548411,-0.562 5.120203,-1.574 7.937315,-2.2489 z m 14.138035,1.9285 c -0.124046,-0.3074 -0.225546,-0.056 -0.225546,0.559 0,0.6148 0.1015,0.8664 0.225546,0.559 0.124054,-0.3075 0.124054,-0.8105 0,-1.118 z m -26.679342,0.5995 c -0.368918,-0.2087 -1.173829,-0.5149 -1.788692,-0.6803 -1.074167,-0.2891 -1.083951,-0.2737 -0.249911,0.393 0.477411,0.3817 1.282321,0.6878 1.788691,0.6804 0.735291,-0.011 0.785612,-0.09 0.249912,-0.3931 z m 25.794309,-9.515 c -0.142747,-0.3567 -0.248707,-0.2508 -0.27016,0.2702 -0.01941,0.4714 0.08627,0.7355 0.23486,0.5869 0.148593,-0.1486 0.16448,-0.5343 0.03529,-0.8571 z m 1.906887,-2.0402 c 0.69624,-2.5071 0.5666,-5.51 -0.31256,-7.2399 -0.864594,-1.7013 -1.36078,-2.0002002 -2.316934,-1.3958 -0.54832,0.3466 -0.499946,0.9899 0.33538,4.4603 0.53686,2.2304 0.976107,4.4596 0.976107,4.9538 0,1.4942 0.82164,1.0089 1.318007,-0.7784 z m -2.354054,-0.6428 c -0.142746,-0.3567 -0.248713,-0.2508 -0.270166,0.2701 -0.01941,0.4714 0.08627,0.7356 0.234866,0.587 0.148587,-0.1486 0.164474,-0.5343 0.03528,-0.8571 z m 6.648527,-5.4915 c 1.043853,-2.4983 0.53916,-5.8718002 -0.951907,-6.3628002 -1.250306,-0.4117 -2.090593,5.1369002 -1.06746,7.0486002 0.679254,1.2692 1.289047,1.0621 2.019367,-0.6858 z m 3.133787,-5.3264002 c 0.351146,-1.3991 0.08777,-3.41 -0.4628,-3.5335 -0.665854,-0.1494 -1.29466,2.0866 -0.960834,3.4167 0.36862,1.4687 1.069894,1.5262 1.423634,0.1168 z"
     inkscape:connector-curvature="0" />
</svg>
