<?xml version="1.0" encoding="UTF-8" standalone="no"?>
<!-- Created with Inkscape (http://www.inkscape.org/) -->
<svg
   xmlns:svg="http://www.w3.org/2000/svg"
   xmlns="http://www.w3.org/2000/svg"
   version="1.0"
   width="523"
   height="200"
   id="svg2">
  <defs
     id="defs4" />
  <g
     id="g2716">
    <path
       d="M 501.44707,153.2561 C 501.44707,166.57012 490.44853,177.27923 477.4239,177.27923 L 46.454317,177.27923 C 33.429723,177.27923 22.720617,166.57012 22.720617,153.2561 L 22.720617,46.743799 C 22.720617,33.429743 33.429723,22.720636 46.454317,22.720636 L 477.4239,22.720636 C 490.44853,22.720636 501.44707,33.429743 501.44707,46.743799 L 501.44707,153.2561 z "
       style="fill:none;stroke:#ffffff;stroke-width:45.44139099"
       id="61716296" />
    <path
       d="M 261.21553,177.27923 L 45.875453,177.27923 C 32.85086,177.27923 21.85229,166.57012 21.85229,153.2561 L 21.85229,46.743799 C 21.85229,33.429743 32.85086,22.720636 45.875453,22.720636 L 261.21553,22.720636 L 261.21553,177.27923 z "
       style="fill:#ffffff"
       id="61716208" />
    <path
       d="M 261.21553,177.27923 L 45.875453,177.27923 C 32.85086,177.27923 21.85229,166.57012 21.85229,153.2561 L 21.85229,46.743799 C 21.85229,33.429743 32.85086,22.720636 45.875453,22.720636 L 261.21553,22.720636"
       style="fill:none;stroke:#000000;stroke-width:2.02604914"
       id="61716120" />
    <path
       d="M 45.875453,22.720636 C 32.85086,22.720636 21.85229,33.429743 21.85229,46.743799 L 21.85229,153.2561 C 21.85229,166.57012 32.85086,177.27923 45.875453,177.27923 L 261.21553,177.27923 L 261.21553,22.720636 L 45.875453,22.720636 z "
       style="fill:#00a0c6;fill-opacity:1;stroke:#000000;stroke-width:2.02604914"
       id="61716032" />
    <path
       d="M 261.21553,22.720636 L 261.21553,177.27923"
       style="fill:none;stroke:#000000;stroke-width:2.02604914"
       id="61715944" />
    <path
       d="M 154.99267,126.33858 L 154.99267,96.237285 L 145.15186,115.62944 L 138.2054,115.62944 L 128.36459,96.237285 L 128.36459,126.33858 L 118.23434,126.33858 L 118.23434,74.529609 L 128.07515,74.529609 L 141.67864,102.60485 L 154.99267,74.529609 L 165.12291,74.529609 L 165.12291,126.33858 L 154.99267,126.33858 z "
       style="fill:#ffffff"
       id="61715856" />
    <path
       d="M 102.3154,99.999931 C 102.3154,78.292255 119.97097,60.636688 141.67864,60.636688 C 163.38632,60.636688 181.04189,78.292255 181.04189,99.999931 C 181.04189,121.70761 163.38632,139.36317 141.67864,139.36317 C 119.97097,139.36317 102.3154,121.70761 102.3154,99.999931 z M 98.842153,99.999931 C 98.842153,123.44423 117.94491,142.83639 141.67864,142.83639 C 165.12291,142.83639 184.22567,123.44423 184.22567,99.999931 C 184.22567,76.555664 165.12291,57.163474 141.67864,57.163474 C 117.94491,57.163474 98.842153,76.555664 98.842153,99.999931 z "
       style="fill:#ffffff"
       id="61715768" />
    <path
       d="M 262.08383,22.720636 L 262.08383,177.27923 L 477.4239,177.27923 C 490.44853,177.27923 501.44707,166.57012 501.44707,153.2561 L 501.44707,46.743799 C 501.44707,33.429743 490.44853,22.720636 477.4239,22.720636 L 262.08383,22.720636 z "
       style="fill:#ffffff;stroke:#000000;stroke-width:2.02604914"
       id="61715680" />
    <path
       d="M 276.26618,59.768393 L 280.60772,59.768393 C 280.89715,59.768393 281.47602,59.768393 281.76545,60.057825 C 282.34434,60.057825 282.63378,60.347256 282.63378,60.636688 C 282.92321,60.92612 283.21264,61.505016 283.21264,61.794447 C 283.21264,62.083879 283.50207,62.662743 283.50207,62.952175 C 283.50207,63.531039 283.21264,63.820502 283.21264,64.399366 C 283.21264,64.688798 282.92321,64.97823 282.63378,65.557094 C 282.34434,65.846526 282.05488,66.135958 281.76545,66.135958 C 281.47602,66.425421 280.89715,66.425421 280.60772,66.425421 L 276.26618,66.425421 L 276.26618,59.768393 z M 279.44996,69.03034 C 279.73942,69.03034 280.02886,69.03034 280.60772,69.03034 C 280.89715,69.03034 281.18658,69.03034 281.47602,69.319772 C 281.76545,69.609203 282.05488,69.898635 282.34434,70.188067 C 282.63378,70.477499 282.63378,71.056363 282.92321,71.635258 C 282.92321,72.503554 282.92321,73.082418 282.92321,73.950745 C 282.92321,74.529609 282.92321,75.108473 282.92321,75.687336 C 283.21264,76.555664 283.21264,77.134527 283.21264,77.423959 C 283.21264,78.002823 283.50207,78.581687 283.7915,78.87115 L 286.68585,78.87115 C 286.39642,78.581687 286.39642,78.002823 286.39642,77.423959 C 286.10699,77.134527 286.10699,76.555664 286.10699,75.976768 C 285.81756,75.397905 285.81756,74.819041 285.81756,74.240177 C 285.81756,73.950745 285.81756,73.37185 285.81756,73.082418 C 285.81756,72.214122 285.81756,71.345826 285.52813,70.477499 C 285.23869,69.898635 285.23869,69.319772 284.94926,69.03034 C 284.65983,68.451444 284.37037,68.162012 283.7915,68.162012 C 283.50207,67.87258 282.92321,67.87258 282.34434,67.583149 L 282.34434,67.583149 C 283.50207,67.293717 284.37037,66.714853 285.23869,65.846526 C 285.81756,64.97823 286.10699,63.820502 286.10699,62.662743 C 286.10699,62.083879 286.10699,61.215552 285.81756,60.636688 C 285.81756,60.057825 285.52813,59.478961 284.94926,58.900097 C 284.65983,58.321202 284.08093,58.03177 283.50207,57.742338 C 282.92321,57.452906 282.05488,57.163474 280.89715,57.163474 L 273.66126,57.163474 L 273.66126,78.87115 L 276.26618,78.87115 L 276.26618,69.03034 L 279.44996,69.03034 z "
       style="fill:#000000"
       id="61715064" />
    <path
       d="M 291.60626,70.188067 C 291.60626,69.319772 291.89569,68.451444 291.89569,67.583149 C 292.18515,67.004285 292.18515,66.425421 292.47459,66.135958 C 292.76402,65.846526 293.05345,65.557094 293.34288,65.557094 C 293.63231,65.267662 294.21118,65.267662 294.50064,65.267662 C 295.0795,65.267662 295.36894,65.267662 295.65837,65.557094 C 296.23723,65.557094 296.52666,65.846526 296.8161,66.135958 C 297.10556,66.425421 297.10556,67.004285 297.39499,67.583149 C 297.39499,68.162012 297.68442,69.03034 297.68442,70.188067 L 291.60626,70.188067 z M 300.28934,72.214122 L 300.28934,70.766931 C 300.28934,69.609203 299.99991,68.451444 299.99991,67.583149 C 299.71048,66.714853 299.42101,65.846526 299.13158,65.267662 C 298.84215,64.688798 298.26329,64.109934 297.39499,63.820502 C 296.8161,63.531039 295.9478,63.531039 294.79007,63.531039 C 293.34288,63.531039 292.47459,63.531039 291.60626,64.109934 C 291.0274,64.399366 290.44853,64.97823 289.86967,65.846526 C 289.58024,66.425421 289.29077,67.293717 289.29077,68.451444 C 289.00134,69.319772 289.00134,70.477499 289.00134,71.635258 C 289.00134,73.082418 289.29077,74.529609 289.58024,75.687336 C 289.86967,76.555664 290.1591,77.423959 290.73796,78.002823 C 291.31683,78.292255 291.89569,78.87115 292.47459,78.87115 C 293.34288,79.160582 293.92175,79.160582 294.79007,79.160582 C 296.23723,79.160582 297.68442,78.87115 298.55272,78.002823 C 299.42101,77.134527 299.99991,75.976768 299.99991,74.240177 L 297.39499,74.240177 C 297.39499,74.819041 297.39499,75.108473 297.10556,75.397905 C 297.10556,75.687336 296.8161,75.976768 296.52666,76.266232 C 296.52666,76.555664 296.23723,76.845096 295.9478,76.845096 C 295.36894,77.134527 295.0795,77.134527 294.79007,77.134527 C 294.21118,77.134527 293.92175,77.134527 293.34288,76.845096 C 293.05345,76.845096 292.76402,76.555664 292.47459,76.266232 C 292.18515,75.976768 291.89569,75.397905 291.89569,74.819041 C 291.60626,73.950745 291.60626,73.082418 291.60626,72.214122 L 300.28934,72.214122 z "
       style="fill:#000000"
       id="61714976" />
    <path
       d="M 313.8928,68.740908 C 314.18223,67.004285 313.60337,65.557094 312.73507,64.688798 C 312.15621,63.820502 310.70902,63.531039 309.26183,63.531039 C 308.1041,63.531039 306.94637,63.531039 306.07804,64.109934 C 305.49918,64.399366 304.92032,64.97823 304.63088,65.846526 C 304.05199,66.425421 303.76256,67.293717 303.76256,68.451444 C 303.76256,69.319772 303.47312,70.477499 303.47312,71.635258 C 303.47312,73.082418 303.76256,74.529609 304.05199,75.687336 C 304.34142,76.555664 304.63088,77.423959 305.20975,78.002823 C 305.78861,78.292255 306.36748,78.87115 306.94637,78.87115 C 307.81467,79.160582 308.39353,79.160582 309.26183,79.160582 C 309.84072,79.160582 310.13015,79.160582 310.70902,78.87115 C 311.28788,78.87115 311.86678,78.581687 312.44564,78.002823 C 312.73507,77.713391 313.31394,77.134527 313.60337,76.555664 C 313.8928,75.687336 314.18223,74.819041 314.18223,73.950745 L 311.57731,73.950745 C 311.57731,74.529609 311.57731,75.108473 311.28788,75.397905 C 310.99845,75.976768 310.99845,76.266232 310.70902,76.555664 C 310.41958,76.845096 310.13015,76.845096 309.84072,77.134527 C 309.55129,77.134527 309.55129,77.134527 309.26183,77.134527 C 308.68296,77.134527 308.1041,77.134527 307.81467,76.845096 C 307.2358,76.555664 306.94637,76.266232 306.65691,75.687336 C 306.65691,75.108473 306.36748,74.529609 306.36748,73.661313 C 306.07804,72.792986 306.07804,71.635258 306.07804,70.477499 C 306.07804,69.319772 306.36748,68.740908 306.36748,67.87258 C 306.65691,67.293717 306.65691,66.714853 306.94637,66.425421 C 307.2358,66.135958 307.52523,65.846526 308.1041,65.557094 C 308.39353,65.557094 308.97239,65.557094 309.26183,65.557094 C 309.55129,65.557094 309.84072,65.557094 310.13015,65.557094 C 310.41958,65.557094 310.41958,65.846526 310.70902,66.135958 C 310.99845,66.425421 310.99845,66.714853 311.28788,67.004285 C 311.28788,67.583149 311.57731,67.87258 311.28788,68.740908 L 313.8928,68.740908 z "
       style="fill:#000000"
       id="61714888" />
    <path
       d="M 321.41812,76.845096 C 321.12869,76.555664 320.83926,76.266232 320.54983,75.687336 C 320.2604,75.108473 320.2604,74.529609 319.97096,73.661313 C 319.97096,72.792986 319.97096,71.635258 319.97096,70.477499 C 319.97096,69.319772 319.97096,68.740908 320.2604,67.87258 C 320.2604,67.293717 320.54983,66.714853 320.83926,66.425421 C 321.12869,66.135958 321.41812,65.846526 321.70759,65.557094 C 322.28645,65.557094 322.57588,65.557094 323.15475,65.557094 C 323.44418,65.557094 324.02304,65.557094 324.31251,65.557094 C 324.89137,65.846526 325.1808,66.135958 325.47023,66.425421 C 325.75966,66.714853 325.75966,67.293717 326.0491,67.87258 C 326.33853,68.740908 326.33853,69.319772 326.33853,70.477499 C 326.33853,71.635258 326.33853,72.792986 326.0491,73.661313 C 326.0491,74.529609 325.75966,75.108473 325.75966,75.687336 C 325.47023,76.266232 325.1808,76.555664 324.60194,76.845096 C 324.31251,77.134527 323.73361,77.134527 323.15475,77.134527 C 322.57588,77.134527 321.99702,77.134527 321.41812,76.845096 L 321.41812,76.845096 z M 325.47023,78.87115 C 326.0491,78.87115 326.62796,78.292255 327.20686,78.002823 C 327.78572,77.423959 328.07515,76.555664 328.36458,75.687336 C 328.65402,74.529609 328.94345,73.082418 328.94345,71.635258 C 328.94345,70.477499 328.65402,69.319772 328.65402,68.451444 C 328.65402,67.293717 328.36458,66.425421 328.07515,65.846526 C 327.49629,64.97823 326.91742,64.399366 326.33853,64.109934 C 325.47023,63.531039 324.31251,63.531039 323.15475,63.531039 C 321.70759,63.531039 320.83926,63.531039 319.97096,64.109934 C 319.10264,64.399366 318.52377,64.97823 318.23434,65.846526 C 317.94491,66.425421 317.65548,67.293717 317.36605,68.451444 C 317.36605,69.319772 317.36605,70.477499 317.36605,71.635258 C 317.36605,73.082418 317.36605,74.529609 317.65548,75.687336 C 317.94491,76.555664 318.52377,77.423959 319.10264,78.002823 C 319.3921,78.292255 320.2604,78.87115 320.83926,78.87115 C 321.41812,79.160582 322.28645,79.160582 323.15475,79.160582 C 324.02304,79.160582 324.60194,79.160582 325.47023,78.87115 L 325.47023,78.87115 z "
       style="fill:#000000"
       id="61714800" />
    <path
       d="M 341.96807,78.87115 L 341.96807,68.740908 C 341.96807,68.451444 341.96807,68.451444 341.96807,68.162012 C 341.96807,67.87258 341.96807,67.583149 341.96807,67.293717 C 341.96807,67.004285 342.2575,67.004285 342.2575,66.714853 C 342.2575,66.425421 342.54694,66.135958 342.83637,66.135958 C 343.1258,65.846526 343.41523,65.557094 343.41523,65.557094 C 343.70466,65.557094 343.99413,65.557094 344.57299,65.557094 C 345.15185,65.557094 345.44129,65.557094 345.73072,65.557094 C 346.02015,65.846526 346.30958,66.135958 346.59905,66.425421 C 346.59905,66.714853 346.88848,67.004285 346.88848,67.293717 C 346.88848,67.583149 346.88848,67.87258 346.88848,68.451444 L 346.88848,78.87115 L 349.4934,78.87115 L 349.4934,67.293717 C 349.4934,66.425421 349.20396,65.846526 348.91453,65.267662 C 348.62507,64.688798 348.33564,64.399366 348.04621,64.109934 C 347.46734,63.820502 347.17791,63.531039 346.59905,63.531039 C 346.02015,63.531039 345.73072,63.531039 345.15185,63.531039 C 344.57299,63.531039 343.99413,63.531039 343.41523,63.820502 C 342.54694,64.109934 341.96807,64.688798 341.67864,65.267662 C 341.67864,64.97823 341.38918,64.688798 341.09974,64.399366 C 340.81031,64.399366 340.52088,64.109934 340.23145,63.820502 C 339.94202,63.820502 339.65259,63.531039 339.07372,63.531039 C 338.78426,63.531039 338.49483,63.531039 338.20539,63.531039 C 337.3371,63.531039 336.46877,63.531039 335.88991,63.820502 C 335.31104,64.399366 334.73218,64.688798 334.44275,65.557094 L 334.44275,65.557094 L 334.44275,63.820502 L 331.83783,63.820502 C 331.83783,64.399366 331.83783,64.688798 331.83783,65.267662 C 331.83783,65.846526 331.83783,66.425421 331.83783,67.004285 L 331.83783,78.87115 L 334.44275,78.87115 L 334.44275,68.740908 C 334.44275,68.451444 334.44275,68.162012 334.44275,67.583149 C 334.44275,67.293717 334.73218,67.004285 335.02161,66.425421 C 335.02161,66.135958 335.31104,65.846526 335.88991,65.846526 C 336.17934,65.557094 336.75823,65.557094 337.04767,65.557094 C 337.62653,65.557094 337.91596,65.557094 338.20539,65.557094 C 338.49483,65.846526 338.78426,66.135958 339.07372,66.425421 C 339.07372,66.714853 339.36315,67.004285 339.36315,67.293717 C 339.36315,67.583149 339.36315,67.87258 339.36315,68.451444 L 339.36315,78.87115 L 341.96807,78.87115 z "
       style="fill:#000000"
       id="61714712" />
    <path
       d="M 362.80742,78.87115 L 362.80742,68.740908 C 362.80742,68.451444 362.80742,68.451444 362.80742,68.162012 C 362.80742,67.87258 362.80742,67.583149 362.80742,67.293717 C 363.09685,67.004285 363.09685,67.004285 363.09685,66.714853 C 363.38629,66.425421 363.38629,66.135958 363.67572,66.135958 C 363.96518,65.846526 364.25461,65.557094 364.54404,65.557094 C 364.54404,65.557094 365.12291,65.557094 365.41234,65.557094 C 365.9912,65.557094 366.28067,65.557094 366.5701,65.557094 C 366.85953,65.846526 367.14896,66.135958 367.43839,66.425421 C 367.43839,66.714853 367.72783,67.004285 367.72783,67.293717 C 367.72783,67.583149 367.72783,67.87258 367.72783,68.451444 L 367.72783,78.87115 L 370.33275,78.87115 L 370.33275,67.293717 C 370.33275,66.425421 370.04331,65.846526 369.75388,65.267662 C 369.75388,64.688798 369.17502,64.399366 368.88559,64.109934 C 368.30669,63.820502 368.01726,63.531039 367.43839,63.531039 C 367.14896,63.531039 366.5701,63.531039 366.28067,63.531039 C 365.41234,63.531039 364.83348,63.531039 364.25461,63.820502 C 363.67572,64.109934 363.09685,64.688798 362.51799,65.267662 C 362.51799,64.97823 362.22856,64.688798 361.93913,64.399366 C 361.64969,64.399366 361.36026,64.109934 361.0708,63.820502 C 360.78137,63.820502 360.49193,63.531039 360.2025,63.531039 C 359.62364,63.531039 359.33421,63.531039 359.04477,63.531039 C 358.17645,63.531039 357.30815,63.531039 356.72929,63.820502 C 356.15039,64.399366 355.57153,64.688798 355.2821,65.557094 L 355.2821,65.557094 L 355.2821,63.820502 L 352.67718,63.820502 C 352.67718,64.399366 352.67718,64.688798 352.67718,65.267662 C 352.67718,65.846526 352.67718,66.425421 352.67718,67.004285 L 352.67718,78.87115 L 355.2821,78.87115 L 355.2821,68.740908 C 355.2821,68.451444 355.2821,68.162012 355.2821,67.583149 C 355.2821,67.293717 355.57153,67.004285 355.86096,66.425421 C 355.86096,66.135958 356.15039,65.846526 356.72929,65.846526 C 357.01872,65.557094 357.59758,65.557094 357.88702,65.557094 C 358.46588,65.557094 358.75531,65.557094 359.04477,65.557094 C 359.33421,65.846526 359.62364,66.135958 359.91307,66.425421 C 359.91307,66.714853 360.2025,67.004285 360.2025,67.293717 C 360.2025,67.583149 360.2025,67.87258 360.2025,68.451444 L 360.2025,78.87115 L 362.80742,78.87115 z "
       style="fill:#000000"
       id="61714624" />
    <path
       d="M 376.12145,70.188067 C 376.12145,69.319772 376.12145,68.451444 376.41091,67.583149 C 376.41091,67.004285 376.70034,66.425421 376.98977,66.135958 C 377.27921,65.846526 377.56864,65.557094 377.85807,65.557094 C 378.1475,65.267662 378.7264,65.267662 379.01583,65.267662 C 379.59469,65.267662 379.88412,65.267662 380.17356,65.557094 C 380.75242,65.557094 381.04185,65.846526 381.33132,66.135958 C 381.62075,66.425421 381.62075,67.004285 381.91018,67.583149 C 381.91018,68.162012 382.19961,69.03034 382.19961,70.188067 L 376.12145,70.188067 z M 384.80453,72.214122 L 384.80453,70.766931 C 384.80453,69.609203 384.5151,68.451444 384.5151,67.583149 C 384.22567,66.714853 383.93623,65.846526 383.6468,65.267662 C 383.06791,64.688798 382.48904,64.109934 381.91018,63.820502 C 381.33132,63.531039 380.46299,63.531039 379.30526,63.531039 C 377.85807,63.531039 376.98977,63.531039 376.12145,64.109934 C 375.54258,64.399366 374.96372,64.97823 374.38485,65.846526 C 374.09542,66.425421 373.80599,67.293717 373.80599,68.451444 C 373.51653,69.319772 373.51653,70.477499 373.51653,71.635258 C 373.51653,73.082418 373.80599,74.529609 374.09542,75.687336 C 374.38485,76.555664 374.67429,77.423959 375.25315,78.002823 C 375.83201,78.292255 376.41091,78.87115 376.98977,78.87115 C 377.56864,79.160582 378.43693,79.160582 379.30526,79.160582 C 380.75242,79.160582 382.19961,78.87115 383.06791,78.002823 C 383.93623,77.134527 384.5151,75.976768 384.5151,74.240177 L 381.91018,74.240177 C 381.91018,74.819041 381.62075,75.108473 381.62075,75.397905 C 381.62075,75.687336 381.33132,75.976768 381.04185,76.266232 C 381.04185,76.555664 380.75242,76.845096 380.17356,76.845096 C 379.88412,77.134527 379.59469,77.134527 379.30526,77.134527 C 378.7264,77.134527 378.43693,77.134527 377.85807,76.845096 C 377.56864,76.845096 377.27921,76.555664 376.98977,76.266232 C 376.70034,75.976768 376.41091,75.397905 376.41091,74.819041 C 376.12145,73.950745 376.12145,73.082418 376.12145,72.214122 L 384.80453,72.214122 z "
       style="fill:#000000"
       id="61714536" />
    <path
       d="M 398.69745,78.87115 L 398.69745,68.451444 C 398.69745,67.583149 398.69745,67.004285 398.40802,66.425421 C 398.40802,65.846526 398.11855,65.267662 397.82912,64.688798 C 397.53969,64.399366 397.25026,64.109934 396.6714,63.820502 C 396.09253,63.531039 395.51364,63.531039 394.64534,63.531039 C 393.48761,63.531039 392.90872,63.531039 392.32985,63.820502 C 391.46156,64.399366 391.17213,64.688798 390.59323,65.557094 L 390.3038,65.557094 L 390.3038,63.820502 L 387.69888,63.820502 C 387.98831,64.399366 387.98831,64.688798 387.98831,65.267662 C 387.98831,65.846526 387.98831,66.425421 387.98831,67.004285 L 387.98831,78.87115 L 390.3038,78.87115 L 390.3038,69.898635 C 390.3038,69.319772 390.59323,68.740908 390.59323,68.451444 C 390.59323,67.87258 390.88266,67.293717 390.88266,67.004285 C 391.17213,66.425421 391.46156,66.135958 392.04042,65.846526 C 392.32985,65.557094 392.90872,65.557094 393.48761,65.557094 C 394.06648,65.557094 394.35591,65.557094 394.93477,65.557094 C 395.2242,65.846526 395.51364,66.135958 395.80307,66.425421 C 395.80307,66.425421 396.09253,67.004285 396.09253,67.293717 C 396.09253,67.583149 396.09253,67.87258 396.09253,68.451444 L 396.09253,78.87115 L 398.69745,78.87115 z "
       style="fill:#000000"
       id="61714448" />
    <path
       d="M 410.27485,73.082418 C 410.27485,73.661313 409.98542,74.529609 409.98542,75.108473 C 409.69599,75.687336 409.40656,76.266232 409.11712,76.555664 C 408.53826,76.845096 408.2488,77.134527 407.3805,77.134527 C 406.80164,77.134527 406.22277,77.134527 405.64388,76.555664 C 405.35445,76.266232 405.06501,75.687336 404.77558,75.108473 C 404.48615,74.819041 404.48615,73.950745 404.48615,73.37185 C 404.48615,72.792986 404.48615,72.214122 404.48615,71.635258 C 404.48615,70.477499 404.48615,69.609203 404.48615,69.03034 C 404.48615,68.162012 404.77558,67.583149 404.77558,67.004285 C 405.06501,66.425421 405.35445,66.135958 405.93334,65.846526 C 406.22277,65.557094 406.80164,65.557094 407.3805,65.557094 C 407.95937,65.557094 408.53826,65.557094 408.82769,66.135958 C 409.40656,66.425421 409.69599,66.714853 409.69599,67.293717 C 409.98542,67.87258 410.27485,68.451444 410.27485,69.03034 C 410.27485,69.609203 410.27485,70.188067 410.27485,70.766931 C 410.27485,71.345826 410.27485,72.214122 410.27485,73.082418 L 410.27485,73.082418 z M 410.27485,65.267662 L 410.27485,65.267662 C 409.69599,64.688798 409.11712,64.109934 408.82769,63.820502 C 408.2488,63.531039 407.66993,63.531039 406.80164,63.531039 C 405.64388,63.531039 404.77558,63.820502 403.90729,64.109934 C 403.32839,64.688798 402.74953,65.267662 402.4601,66.135958 C 402.17066,67.004285 401.88123,67.87258 401.88123,68.740908 C 401.88123,69.609203 401.88123,70.766931 401.88123,71.635258 C 401.88123,73.082418 401.88123,74.529609 402.17066,75.687336 C 402.4601,76.555664 402.74953,77.423959 403.32839,78.002823 C 403.90729,78.292255 404.19672,78.87115 405.06501,78.87115 C 405.35445,79.160582 406.22277,79.160582 406.80164,79.160582 C 407.3805,79.160582 408.2488,78.87115 408.82769,78.581687 C 409.40656,78.292255 409.69599,77.713391 410.27485,77.134527 L 410.27485,77.134527 L 410.27485,78.87115 L 412.59034,78.87115 L 412.59034,57.163474 L 410.27485,57.163474 L 410.27485,65.267662 z "
       style="fill:#000000"
       id="61714360" />
    <path
       d="M 418.95794,70.188067 C 418.95794,69.319772 418.95794,68.451444 418.95794,67.583149 C 419.24737,67.004285 419.5368,66.425421 419.82623,66.135958 C 420.11566,65.846526 420.40509,65.557094 420.69456,65.557094 C 420.98399,65.267662 421.27342,65.267662 421.85229,65.267662 C 422.14172,65.267662 422.72058,65.267662 423.01001,65.557094 C 423.29948,65.557094 423.58891,65.846526 423.87834,66.135958 C 424.16777,66.425421 424.4572,67.004285 424.4572,67.583149 C 424.74664,68.162012 424.74664,69.03034 424.74664,70.188067 L 418.95794,70.188067 z M 427.35156,72.214122 L 427.35156,70.766931 C 427.35156,69.609203 427.35156,68.451444 427.06212,67.583149 C 427.06212,66.714853 426.77269,65.846526 426.19383,65.267662 C 425.9044,64.688798 425.3255,64.109934 424.74664,63.820502 C 423.87834,63.531039 423.01001,63.531039 421.85229,63.531039 C 420.69456,63.531039 419.5368,63.531039 418.95794,64.109934 C 418.08961,64.399366 417.51074,64.97823 417.22131,65.846526 C 416.64245,66.425421 416.35302,67.293717 416.35302,68.451444 C 416.35302,69.319772 416.35302,70.477499 416.35302,71.635258 C 416.35302,73.082418 416.35302,74.529609 416.64245,75.687336 C 416.93188,76.555664 417.51074,77.423959 417.80018,78.002823 C 418.37907,78.292255 418.95794,78.87115 419.82623,78.87115 C 420.40509,79.160582 421.27342,79.160582 421.85229,79.160582 C 423.58891,79.160582 424.74664,78.87115 425.9044,78.002823 C 426.77269,77.134527 427.35156,75.976768 427.35156,74.240177 L 424.4572,74.240177 C 424.4572,74.819041 424.4572,75.108473 424.4572,75.397905 C 424.16777,75.687336 424.16777,75.976768 423.87834,76.266232 C 423.58891,76.555664 423.29948,76.845096 423.01001,76.845096 C 422.72058,77.134527 422.43115,77.134527 421.85229,77.134527 C 421.56285,77.134527 420.98399,77.134527 420.69456,76.845096 C 420.11566,76.845096 419.82623,76.555664 419.5368,76.266232 C 419.5368,75.976768 419.24737,75.397905 418.95794,74.819041 C 418.95794,73.950745 418.95794,73.082418 418.95794,72.214122 L 427.35156,72.214122 z "
       style="fill:#000000"
       id="61870544" />
    <path
       d="M 438.63956,73.082418 C 438.63956,73.661313 438.63956,74.529609 438.35013,75.108473 C 438.06069,75.687336 438.06069,76.266232 437.4818,76.555664 C 437.19237,76.845096 436.6135,77.134527 436.03464,77.134527 C 435.16631,77.134527 434.58745,77.134527 434.29802,76.555664 C 433.71915,76.266232 433.42972,75.687336 433.14029,75.108473 C 433.14029,74.819041 432.85082,73.950745 432.85082,73.37185 C 432.85082,72.792986 432.85082,72.214122 432.85082,71.635258 C 432.85082,70.477499 432.85082,69.609203 432.85082,69.03034 C 433.14029,68.162012 433.14029,67.583149 433.42972,67.004285 C 433.71915,66.425421 434.00858,66.135958 434.29802,65.846526 C 434.58745,65.557094 435.16631,65.557094 435.74521,65.557094 C 436.6135,65.557094 437.19237,65.557094 437.4818,66.135958 C 437.77123,66.425421 438.06069,66.714853 438.35013,67.293717 C 438.35013,67.87258 438.63956,68.451444 438.63956,69.03034 C 438.63956,69.609203 438.63956,70.188067 438.63956,70.766931 C 438.63956,71.345826 438.63956,72.214122 438.63956,73.082418 L 438.63956,73.082418 z M 438.63956,65.267662 L 438.63956,65.267662 C 438.06069,64.688798 437.77123,64.109934 437.19237,63.820502 C 436.6135,63.531039 436.03464,63.531039 435.16631,63.531039 C 434.00858,63.531039 433.14029,63.820502 432.56139,64.109934 C 431.6931,64.688798 431.40366,65.267662 430.8248,66.135958 C 430.53534,67.004285 430.53534,67.87258 430.24591,68.740908 C 430.24591,69.609203 430.24591,70.766931 430.24591,71.635258 C 430.24591,73.082418 430.53534,74.529609 430.8248,75.687336 C 431.11423,76.555664 431.40366,77.423959 431.6931,78.002823 C 432.27196,78.292255 432.85082,78.87115 433.42972,78.87115 C 434.00858,79.160582 434.58745,79.160582 435.16631,79.160582 C 436.03464,79.160582 436.6135,78.87115 437.19237,78.581687 C 437.77123,78.292255 438.35013,77.713391 438.63956,77.134527 L 438.63956,77.134527 L 438.63956,78.87115 L 441.24448,78.87115 L 441.24448,57.163474 L 438.63956,57.163474 L 438.63956,65.267662 z "
       style="fill:#000000"
       id="61870456" />
    <path
       d="M 271.34577,93.632367 L 271.34577,95.65839 L 273.95069,95.65839 L 273.95069,108.97245 L 276.26618,108.97245 L 276.26618,95.65839 L 279.44996,95.65839 L 279.44996,93.632367 L 276.26618,93.632367 L 276.26618,91.027448 C 276.26618,90.737984 276.26618,90.448553 276.26618,90.159121 C 276.55561,89.869689 276.55561,89.869689 276.84504,89.580257 C 277.13447,89.290825 277.42394,89.290825 277.71337,89.001393 C 278.0028,89.001393 278.58167,89.001393 279.44996,89.001393 L 279.44996,87.26477 C 279.16053,87.26477 278.8711,87.26477 278.8711,87.26477 C 278.58167,87.26477 278.29223,87.26477 278.29223,87.26477 C 277.71337,87.26477 277.13447,87.26477 276.55561,87.26477 C 275.97675,87.26477 275.68732,87.554202 275.10845,87.843634 C 274.81902,88.133066 274.52956,88.422498 274.24012,89.001393 C 273.95069,89.290825 273.95069,90.159121 273.95069,90.737984 L 273.95069,93.632367 L 271.34577,93.632367 z "
       style="fill:#000000"
       id="61870368" />
    <path
       d="M 284.65983,106.65696 C 284.37037,106.65696 284.08093,106.0781 283.7915,105.78863 C 283.50207,105.20977 283.21264,104.34147 283.21264,103.47318 C 283.21264,102.60485 283.21264,101.73655 283.21264,100.5788 C 283.21264,99.421068 283.21264,98.552772 283.21264,97.973877 C 283.50207,97.395013 283.7915,96.816149 284.08093,96.526717 C 284.37037,95.947853 284.65983,95.65839 284.94926,95.65839 C 285.23869,95.368958 285.81756,95.368958 286.39642,95.368958 C 286.68585,95.368958 287.26475,95.368958 287.55418,95.65839 C 287.84361,95.65839 288.42248,95.947853 288.71191,96.526717 C 288.71191,96.816149 289.00134,97.395013 289.29077,97.973877 C 289.29077,98.552772 289.58024,99.421068 289.58024,100.5788 C 289.58024,101.73655 289.29077,102.60485 289.29077,103.47318 C 289.29077,104.34147 289.00134,105.20977 288.71191,105.78863 C 288.71191,106.0781 288.13304,106.65696 287.84361,106.65696 C 287.55418,106.94639 286.97529,107.23582 286.39642,107.23582 C 285.52813,107.23582 285.23869,106.94639 284.65983,106.65696 L 284.65983,106.65696 z M 288.42248,108.97245 C 289.29077,108.68301 289.86967,108.39358 290.44853,107.81469 C 290.73796,107.23582 291.31683,106.65696 291.60626,105.4992 C 291.89569,104.6309 291.89569,103.18371 291.89569,101.44712 C 291.89569,100.28936 291.89569,99.421068 291.89569,98.263309 C 291.89569,97.395013 291.60626,96.526717 291.0274,95.65839 C 290.73796,95.079526 290.1591,94.500662 289.29077,93.921798 C 288.71191,93.632367 287.55418,93.342903 286.39642,93.342903 C 284.94926,93.342903 283.7915,93.632367 283.21264,93.921798 C 282.34434,94.500662 281.76545,95.079526 281.47602,95.65839 C 281.18658,96.526717 280.89715,97.395013 280.60772,98.263309 C 280.60772,99.421068 280.60772,100.28936 280.60772,101.44712 C 280.60772,103.18371 280.60772,104.6309 280.89715,105.4992 C 281.18658,106.65696 281.76545,107.23582 282.34434,107.81469 C 282.63378,108.39358 283.21264,108.68301 284.08093,108.97245 C 284.65983,108.97245 285.52813,109.26188 286.39642,109.26188 C 286.97529,109.26188 287.84361,108.97245 288.42248,108.97245 L 288.42248,108.97245 z "
       style="fill:#000000"
       id="61870280" />
    <path
       d="M 297.68442,93.632367 L 295.36894,93.632367 L 295.36894,108.97245 L 297.68442,108.97245 L 297.68442,99.999931 C 297.68442,99.421068 297.68442,98.842204 297.97386,98.552772 C 297.97386,97.973877 298.26329,97.395013 298.55272,97.105581 C 298.55272,96.816149 299.13158,96.526717 299.42101,96.237285 C 299.99991,95.947853 300.57877,95.947853 301.15764,95.947853 C 301.15764,95.947853 301.44707,95.947853 301.44707,95.947853 C 301.44707,95.947853 301.7365,95.947853 301.7365,95.947853 C 302.02597,95.947853 302.02597,95.947853 302.02597,95.947853 C 302.3154,95.947853 302.3154,95.947853 302.3154,95.947853 L 302.3154,93.342903 C 301.7365,93.342903 301.44707,93.342903 300.86821,93.342903 C 300.28934,93.632367 299.99991,93.632367 299.71048,93.921798 C 299.13158,93.921798 298.84215,94.21123 298.55272,94.500662 C 298.26329,95.079526 297.97386,95.368958 297.68442,95.947853 L 297.68442,95.947853 L 297.68442,93.632367 z "
       style="fill:#000000"
       id="61870192" />
    <path
       d="M 320.2604,108.97245 L 320.2604,98.552772 C 320.2604,98.552772 320.2604,98.263309 320.2604,97.973877 C 320.2604,97.973877 320.2604,97.684445 320.2604,97.395013 C 320.54983,97.105581 320.54983,96.816149 320.54983,96.526717 C 320.83926,96.237285 320.83926,96.237285 321.12869,95.947853 C 321.41812,95.65839 321.70759,95.65839 321.99702,95.65839 C 321.99702,95.368958 322.57588,95.368958 322.86531,95.368958 C 323.44418,95.368958 323.73361,95.65839 324.02304,95.65839 C 324.31251,95.947853 324.60194,95.947853 324.89137,96.237285 C 324.89137,96.526717 325.1808,96.816149 325.1808,97.395013 C 325.1808,97.684445 325.1808,97.973877 325.1808,98.263309 L 325.1808,108.97245 L 327.78572,108.97245 L 327.78572,97.395013 C 327.78572,96.526717 327.49629,95.65839 327.20686,95.079526 C 327.20686,94.790094 326.62796,94.21123 326.33853,93.921798 C 325.75966,93.632367 325.47023,93.632367 324.89137,93.632367 C 324.60194,93.342903 324.02304,93.342903 323.73361,93.342903 C 322.86531,93.342903 322.28645,93.632367 321.70759,93.921798 C 320.83926,93.921798 320.54983,94.500662 319.97096,95.368958 C 319.97096,95.079526 319.68153,94.790094 319.3921,94.500662 C 319.10264,94.21123 318.8132,93.921798 318.52377,93.921798 C 318.23434,93.632367 317.94491,93.632367 317.65548,93.632367 C 317.07661,93.342903 316.78718,93.342903 316.49772,93.342903 C 315.62942,93.342903 314.76113,93.632367 314.18223,93.921798 C 313.60337,94.21123 313.0245,94.790094 312.73507,95.65839 L 312.73507,95.65839 L 312.73507,93.632367 L 310.13015,93.632367 C 310.13015,94.21123 310.13015,94.790094 310.13015,95.368958 C 310.13015,95.947853 310.13015,96.237285 310.13015,96.816149 L 310.13015,108.97245 L 312.73507,108.97245 L 312.73507,98.552772 C 312.73507,98.263309 312.73507,97.973877 312.73507,97.684445 C 312.73507,97.105581 313.0245,96.816149 313.31394,96.526717 C 313.31394,96.237285 313.60337,95.947853 314.18223,95.65839 C 314.47169,95.65839 315.05056,95.368958 315.33999,95.368958 C 315.91885,95.368958 316.20829,95.65839 316.49772,95.65839 C 316.78718,95.947853 317.07661,95.947853 317.36605,96.237285 C 317.36605,96.526717 317.65548,96.816149 317.65548,97.395013 C 317.65548,97.684445 317.65548,97.973877 317.65548,98.263309 L 317.65548,108.97245 L 320.2604,108.97245 z "
       style="fill:#000000"
       id="61870104" />
    <path
       d="M 338.78426,104.34147 C 338.49483,104.92034 338.20539,105.78863 337.91596,106.0781 C 337.62653,106.36753 337.3371,106.65696 337.04767,106.94639 C 336.46877,106.94639 336.17934,107.23582 335.88991,107.23582 C 335.02161,107.23582 334.44275,106.94639 334.15332,106.36753 C 333.57442,105.78863 333.57442,105.20977 333.57442,104.34147 C 333.57442,103.47318 333.57442,102.89428 333.86385,102.60485 C 334.44275,102.02599 334.73218,101.73655 335.31104,101.73655 C 335.88991,101.44712 336.46877,101.44712 337.04767,101.44712 C 337.62653,101.44712 338.49483,101.44712 338.78426,101.44712 C 339.07372,102.60485 338.78426,103.47318 338.78426,104.34147 L 338.78426,104.34147 z M 339.07372,108.97245 L 341.67864,108.97245 C 341.67864,108.39358 341.38918,107.81469 341.38918,106.94639 C 341.38918,106.36753 341.38918,105.78863 341.38918,105.20977 L 341.38918,97.973877 C 341.38918,97.395013 341.38918,96.816149 341.09974,96.237285 C 341.09974,95.65839 340.81031,95.079526 340.52088,94.790094 C 339.94202,94.21123 339.65259,93.921798 338.78426,93.921798 C 338.20539,93.632367 337.3371,93.342903 336.46877,93.342903 C 334.73218,93.342903 333.57442,93.632367 332.70613,94.500662 C 331.83783,95.079526 331.54837,96.237285 331.25893,97.973877 L 334.15332,97.973877 C 333.86385,97.105581 334.15332,96.526717 334.44275,95.947853 C 335.02161,95.65839 335.60048,95.368958 336.46877,95.368958 C 337.04767,95.368958 337.62653,95.368958 337.91596,95.65839 C 338.20539,95.947853 338.49483,96.237285 338.78426,96.526717 C 338.78426,97.105581 338.78426,97.395013 338.78426,97.973877 C 339.07372,98.552772 339.07372,98.842204 338.78426,99.421068 C 337.91596,99.421068 337.04767,99.421068 336.17934,99.421068 C 335.31104,99.7105 334.44275,99.7105 333.57442,99.999931 C 332.99556,100.28936 332.12726,100.86826 331.83783,101.44712 C 331.25893,102.02599 330.9695,102.89428 330.9695,104.05204 C 330.9695,104.92034 330.9695,105.4992 331.25893,106.0781 C 331.25893,106.65696 331.54837,107.23582 331.83783,107.81469 C 332.12726,108.10412 332.70613,108.39358 333.28499,108.68301 C 333.57442,108.97245 334.44275,109.26188 335.02161,109.26188 C 336.17934,109.26188 336.75823,108.97245 337.3371,108.68301 C 337.91596,108.10412 338.49483,107.52526 338.78426,106.65696 L 339.07372,106.65696 L 339.07372,108.97245 z "
       style="fill:#000000"
       id="61870016" />
    <path
       d="M 343.1258,93.632367 L 343.1258,95.65839 L 345.73072,95.65839 L 345.73072,106.36753 C 345.73072,107.23582 346.02015,107.81469 346.59905,108.39358 C 347.17791,108.68301 348.04621,108.97245 349.20396,108.97245 C 349.4934,108.97245 349.78283,108.97245 350.36169,108.97245 C 350.65112,108.97245 351.22999,108.68301 351.51945,108.68301 L 351.51945,106.94639 C 351.22999,106.94639 350.94056,106.94639 350.94056,106.94639 C 350.65112,106.94639 350.36169,106.94639 350.36169,106.94639 C 349.78283,106.94639 349.4934,106.94639 349.20396,106.94639 C 348.91453,106.65696 348.62507,106.36753 348.33564,106.36753 C 348.33564,106.0781 348.33564,105.78863 348.04621,105.4992 C 348.04621,105.20977 348.04621,105.20977 348.04621,104.92034 L 348.04621,95.65839 L 351.51945,95.65839 L 351.51945,93.632367 L 348.04621,93.632367 L 348.04621,89.580257 L 345.73072,90.737984 L 345.73072,93.632367 L 343.1258,93.632367 z "
       style="fill:#000000"
       id="61869928" />
    <path
       d="M 361.0708,103.76261 C 361.0708,104.34147 361.0708,104.92034 360.78137,105.4992 C 360.49193,105.78863 360.49193,106.0781 360.2025,106.36753 C 359.91307,106.65696 359.62364,106.94639 359.04477,106.94639 C 358.75531,107.23582 358.46588,107.23582 358.17645,107.23582 C 357.30815,107.23582 356.72929,106.94639 356.15039,106.36753 C 355.86096,105.78863 355.57153,105.20977 355.57153,104.34147 L 355.57153,93.632367 L 352.96661,93.632367 L 352.96661,105.20977 C 352.96661,106.65696 353.54547,107.52526 354.12437,108.10412 C 354.70323,108.68301 355.86096,109.26188 357.30815,109.26188 C 357.88702,109.26188 358.75531,108.97245 359.33421,108.68301 C 360.2025,108.39358 360.49193,107.81469 361.0708,106.94639 L 361.0708,106.94639 L 361.0708,108.97245 L 363.67572,108.97245 C 363.67572,108.39358 363.67572,107.81469 363.67572,107.23582 C 363.67572,106.65696 363.67572,106.0781 363.67572,105.78863 L 363.67572,93.632367 L 361.0708,93.632367 L 361.0708,103.76261 z "
       style="fill:#000000"
       id="61869840" />
    <path
       d="M 369.75388,93.632367 L 367.43839,93.632367 L 367.43839,108.97245 L 369.75388,108.97245 L 369.75388,99.999931 C 369.75388,99.421068 369.75388,98.842204 370.04331,98.552772 C 370.04331,97.973877 370.33275,97.395013 370.62218,97.105581 C 370.62218,96.816149 371.20107,96.526717 371.4905,96.237285 C 372.06937,95.947853 372.64823,95.947853 373.2271,95.947853 C 373.2271,95.947853 373.51653,95.947853 373.51653,95.947853 C 373.51653,95.947853 373.80599,95.947853 373.80599,95.947853 C 374.09542,95.947853 374.09542,95.947853 374.09542,95.947853 C 374.38485,95.947853 374.38485,95.947853 374.38485,95.947853 L 374.38485,93.342903 C 373.80599,93.342903 373.51653,93.342903 372.93766,93.342903 C 372.3588,93.632367 372.06937,93.632367 371.77994,93.921798 C 371.20107,93.921798 370.91161,94.21123 370.62218,94.500662 C 370.33275,95.079526 370.04331,95.368958 369.75388,95.947853 L 369.75388,95.947853 L 369.75388,93.632367 z "
       style="fill:#000000"
       id="61869752" />
    <path
       d="M 379.01583,100.28936 C 379.01583,99.131636 379.01583,98.263309 379.01583,97.684445 C 379.30526,97.105581 379.59469,96.526717 379.88412,96.237285 C 379.88412,95.947853 380.17356,95.65839 380.75242,95.368958 C 381.04185,95.368958 381.33132,95.368958 381.62075,95.368958 C 382.19961,95.368958 382.48904,95.368958 383.06791,95.368958 C 383.35734,95.65839 383.6468,95.65839 383.93623,95.947853 C 384.22567,96.526717 384.5151,96.816149 384.5151,97.684445 C 384.80453,98.263309 384.80453,99.131636 384.80453,100.28936 L 379.01583,100.28936 z M 387.40945,102.02599 L 387.40945,100.86826 C 387.40945,99.421068 387.40945,98.552772 387.12002,97.395013 C 387.12002,96.526717 386.83058,95.947853 386.25172,95.079526 C 385.96226,94.500662 385.38339,94.21123 384.80453,93.921798 C 383.93623,93.632367 383.06791,93.342903 381.91018,93.342903 C 380.75242,93.342903 379.59469,93.632367 379.01583,93.921798 C 378.1475,94.500662 377.56864,95.079526 377.27921,95.65839 C 376.70034,96.526717 376.41091,97.395013 376.41091,98.263309 C 376.41091,99.421068 376.12145,100.28936 376.12145,101.44712 C 376.12145,103.18371 376.41091,104.6309 376.70034,105.4992 C 376.98977,106.65696 377.27921,107.23582 377.85807,107.81469 C 378.43693,108.39358 379.01583,108.68301 379.88412,108.97245 C 380.46299,108.97245 381.33132,109.26188 381.91018,109.26188 C 383.6468,109.26188 384.80453,108.68301 385.96226,108.10412 C 386.83058,107.23582 387.12002,106.0781 387.40945,104.34147 L 384.5151,104.34147 C 384.5151,104.6309 384.5151,104.92034 384.22567,105.20977 C 384.22567,105.78863 383.93623,106.0781 383.93623,106.36753 C 383.6468,106.65696 383.35734,106.65696 383.06791,106.94639 C 382.77847,106.94639 382.48904,107.23582 381.91018,107.23582 C 381.33132,107.23582 381.04185,106.94639 380.75242,106.94639 C 380.17356,106.94639 379.88412,106.65696 379.59469,106.0781 C 379.30526,105.78863 379.30526,105.20977 379.01583,104.6309 C 379.01583,104.05204 379.01583,103.18371 379.01583,102.02599 L 387.40945,102.02599 z "
       style="fill:#000000"
       id="61869664" />
    <path
       d="M 280.89715,134.15334 C 280.60772,135.02163 280.60772,135.60053 280.31829,135.88996 C 279.73942,136.46882 279.44996,136.75826 279.16053,136.75826 C 278.8711,137.04769 278.29223,137.04769 278.0028,137.04769 C 277.13447,137.04769 276.55561,136.75826 276.26618,136.17939 C 275.68732,135.60053 275.68732,135.02163 275.68732,134.44277 C 275.68732,133.57447 275.68732,132.99558 276.26618,132.41671 C 276.55561,132.12728 276.84504,131.83785 277.42394,131.54842 C 278.0028,131.54842 278.58167,131.25899 279.16053,131.25899 C 280.02886,131.25899 280.60772,131.25899 281.18658,131.25899 C 281.18658,132.41671 281.18658,133.57447 280.89715,134.15334 L 280.89715,134.15334 z M 281.18658,138.78431 L 283.7915,138.78431 C 283.7915,138.20545 283.7915,137.62655 283.50207,137.04769 C 283.50207,136.46882 283.50207,135.88996 283.50207,135.31106 L 283.50207,128.0752 C 283.50207,127.20688 283.50207,126.62801 283.21264,126.04915 C 283.21264,125.47025 282.92321,125.18082 282.63378,124.60196 C 282.05488,124.31253 281.76545,124.02309 281.18658,123.73366 C 280.31829,123.44423 279.73942,123.44423 278.58167,123.44423 C 277.13447,123.44423 275.68732,123.73366 274.81902,124.31253 C 273.95069,125.18082 273.66126,126.33858 273.37183,128.0752 L 276.26618,128.0752 C 275.97675,127.20688 276.26618,126.62801 276.55561,126.04915 C 277.13447,125.47025 277.71337,125.18082 278.58167,125.18082 C 279.16053,125.18082 279.73942,125.47025 280.02886,125.47025 C 280.31829,125.75972 280.60772,126.33858 280.89715,126.62801 C 280.89715,126.91745 281.18658,127.49631 281.18658,128.0752 C 281.18658,128.36464 281.18658,128.9435 281.18658,129.52236 C 280.31829,129.52236 279.44996,129.52236 278.29223,129.52236 C 277.42394,129.52236 276.55561,129.8118 275.68732,130.10123 C 275.10845,130.39066 274.52956,130.68012 273.95069,131.54842 C 273.37183,132.12728 273.0824,132.99558 273.0824,134.15334 C 273.0824,134.7322 273.0824,135.60053 273.37183,136.17939 C 273.37183,136.75826 273.66126,137.33712 273.95069,137.62655 C 274.24012,138.20545 274.81902,138.49488 275.39788,138.78431 C 275.68732,139.07374 276.55561,139.07374 277.42394,139.07374 C 278.29223,139.07374 279.16053,138.78431 279.73942,138.49488 C 280.31829,138.20545 280.60772,137.62655 281.18658,136.75826 L 281.18658,136.75826 L 281.18658,138.78431 z "
       style="fill:#000000"
       id="61869576" />
    <path
       d="M 295.65837,133.86391 C 295.65837,134.44277 295.65837,135.02163 295.36894,135.31106 C 295.0795,135.88996 295.0795,136.17939 294.79007,136.46882 C 294.50064,136.75826 294.21118,137.04769 293.63231,137.04769 C 293.34288,137.33712 293.05345,137.33712 292.76402,137.33712 C 291.89569,137.33712 291.31683,137.04769 290.73796,136.46882 C 290.44853,135.88996 290.1591,135.02163 290.1591,134.15334 L 290.1591,123.73366 L 287.55418,123.73366 L 287.55418,135.31106 C 287.55418,136.46882 288.13304,137.62655 288.71191,138.20545 C 289.29077,138.78431 290.44853,139.07374 291.89569,139.07374 C 292.47459,139.07374 293.34288,139.07374 293.92175,138.49488 C 294.79007,138.20545 295.0795,137.62655 295.65837,137.04769 L 295.65837,137.04769 L 295.65837,138.78431 L 298.26329,138.78431 C 298.26329,138.20545 298.26329,137.62655 298.26329,137.33712 C 298.26329,136.75826 298.26329,136.17939 298.26329,135.60053 L 298.26329,123.73366 L 295.65837,123.73366 L 295.65837,133.86391 z "
       style="fill:#000000"
       id="61869488" />
    <path
       d="M 309.84072,132.99558 C 309.84072,133.57447 309.55129,134.44277 309.55129,135.02163 C 309.26183,135.60053 308.97239,136.17939 308.68296,136.46882 C 308.39353,136.75826 307.81467,137.04769 306.94637,137.04769 C 306.36748,137.04769 305.78861,137.04769 305.20975,136.46882 C 304.92032,136.17939 304.63088,135.60053 304.34142,135.02163 C 304.05199,134.7322 304.05199,134.15334 304.05199,133.28504 C 304.05199,132.70615 304.05199,132.12728 304.05199,131.54842 C 304.05199,130.39066 304.05199,129.52236 304.05199,128.9435 C 304.05199,128.0752 304.34142,127.49631 304.63088,126.91745 C 304.63088,126.33858 304.92032,126.04915 305.49918,125.75972 C 305.78861,125.47025 306.36748,125.47025 306.94637,125.47025 C 307.81467,125.47025 308.1041,125.47025 308.68296,126.04915 C 308.97239,126.33858 309.26183,126.62801 309.55129,127.20688 C 309.55129,127.78574 309.84072,128.36464 309.84072,128.9435 C 309.84072,129.52236 309.84072,130.10123 309.84072,130.68012 C 309.84072,131.25899 309.84072,132.12728 309.84072,132.99558 L 309.84072,132.99558 z M 309.84072,125.18082 L 309.84072,125.18082 C 309.26183,124.60196 308.97239,124.02309 308.39353,123.73366 C 307.81467,123.44423 307.2358,123.44423 306.36748,123.44423 C 305.20975,123.44423 304.34142,123.73366 303.47312,124.02309 C 302.89426,124.60196 302.3154,125.18082 302.02597,126.04915 C 301.7365,126.91745 301.44707,127.78574 301.44707,128.65407 C 301.44707,129.52236 301.44707,130.68012 301.44707,131.54842 C 301.44707,133.28504 301.44707,134.44277 301.7365,135.60053 C 302.02597,136.46882 302.60483,137.33712 302.89426,137.91598 C 303.47312,138.20545 304.05199,138.78431 304.63088,138.78431 C 305.20975,139.07374 305.78861,139.07374 306.36748,139.07374 C 307.2358,139.07374 307.81467,139.07374 308.39353,138.49488 C 308.97239,138.20545 309.26183,137.62655 309.84072,137.04769 L 309.84072,137.04769 L 309.84072,138.78431 L 312.15621,138.78431 L 312.15621,117.07663 L 309.84072,117.07663 L 309.84072,125.18082 z "
       style="fill:#000000"
       id="61869400" />
    <path
       d="M 315.91885,119.68155 L 318.52377,119.68155 L 318.52377,117.07663 L 315.91885,117.07663 L 315.91885,119.68155 z M 318.52377,123.73366 L 315.91885,123.73366 L 315.91885,138.78431 L 318.52377,138.78431 L 318.52377,123.73366 z "
       style="fill:#000000"
       id="61869312" />
    <path
       d="M 324.31251,130.10123 C 324.31251,129.23293 324.60194,128.36464 324.60194,127.49631 C 324.89137,126.91745 324.89137,126.62801 325.1808,126.04915 C 325.47023,125.75972 325.75966,125.47025 326.0491,125.47025 C 326.33853,125.18082 326.91742,125.18082 327.20686,125.18082 C 327.78572,125.18082 328.07515,125.18082 328.36458,125.47025 C 328.94345,125.47025 329.23291,125.75972 329.52234,126.04915 C 329.81177,126.33858 329.81177,126.91745 330.10121,127.49631 C 330.10121,128.0752 330.39064,128.9435 330.39064,130.10123 L 324.31251,130.10123 z M 332.99556,132.12728 L 332.99556,130.68012 C 332.99556,129.52236 332.70613,128.36464 332.70613,127.49631 C 332.41669,126.62801 332.12726,125.75972 331.83783,125.18082 C 331.54837,124.60196 330.9695,124.02309 330.10121,123.73366 C 329.52234,123.44423 328.65402,123.44423 327.49629,123.44423 C 326.0491,123.44423 325.1808,123.73366 324.31251,124.02309 C 323.73361,124.60196 323.15475,124.89139 322.57588,125.75972 C 322.28645,126.62801 321.99702,127.20688 321.99702,128.36464 C 321.70759,129.23293 321.70759,130.39066 321.70759,131.54842 C 321.70759,133.28504 321.99702,134.44277 322.28645,135.60053 C 322.57588,136.46882 322.86531,137.33712 323.44418,137.91598 C 324.02304,138.20545 324.60194,138.78431 325.1808,138.78431 C 326.0491,139.07374 326.62796,139.07374 327.49629,139.07374 C 328.94345,139.07374 330.39064,138.78431 331.25893,137.91598 C 332.12726,137.04769 332.70613,135.88996 332.70613,134.15334 L 330.10121,134.15334 C 330.10121,134.7322 330.10121,135.02163 329.81177,135.31106 C 329.81177,135.60053 329.52234,135.88996 329.23291,136.17939 C 329.23291,136.46882 328.94345,136.75826 328.65402,136.75826 C 328.07515,137.04769 327.78572,137.04769 327.49629,137.04769 C 326.91742,137.04769 326.62796,137.04769 326.0491,136.75826 C 325.75966,136.75826 325.47023,136.46882 325.1808,136.17939 C 324.89137,135.88996 324.60194,135.31106 324.60194,134.7322 C 324.31251,133.86391 324.31251,132.99558 324.31251,132.12728 L 332.99556,132.12728 z "
       style="fill:#000000"
       id="61869224" />
    <path
       d="M 346.88848,138.78431 L 346.88848,128.36464 C 346.88848,127.49631 346.88848,126.91745 346.59905,126.33858 C 346.59905,125.75972 346.30958,125.18082 346.02015,124.60196 C 345.73072,124.31253 345.44129,124.02309 344.86242,123.73366 C 344.28356,123.44423 343.70466,123.44423 342.83637,123.44423 C 341.96807,123.44423 341.09974,123.44423 340.52088,123.73366 C 339.94202,124.31253 339.36315,124.89139 338.78426,125.75972 L 338.78426,125.75972 L 338.78426,123.73366 L 336.17934,123.73366 C 336.17934,124.31253 336.17934,124.60196 336.17934,125.18082 C 336.17934,125.75972 336.17934,126.33858 336.17934,126.91745 L 336.17934,138.78431 L 338.78426,138.78431 L 338.78426,129.8118 C 338.78426,129.23293 338.78426,128.9435 338.78426,128.36464 C 338.78426,127.78574 339.07372,127.20688 339.07372,126.91745 C 339.36315,126.33858 339.65259,126.04915 340.23145,125.75972 C 340.52088,125.47025 341.09974,125.47025 341.67864,125.47025 C 342.2575,125.47025 342.83637,125.47025 343.1258,125.47025 C 343.41523,125.75972 343.70466,126.04915 343.99413,126.33858 C 343.99413,126.62801 344.28356,126.91745 344.28356,127.20688 C 344.28356,127.49631 344.28356,128.0752 344.28356,128.36464 L 344.28356,138.78431 L 346.88848,138.78431 z "
       style="fill:#000000"
       id="61869136" />
    <path
       d="M 360.78137,128.65407 C 361.0708,126.91745 360.49193,125.47025 359.91307,124.60196 C 359.04477,123.73366 357.88702,123.44423 356.15039,123.44423 C 354.99267,123.44423 353.83491,123.73366 353.25604,124.02309 C 352.38775,124.60196 351.80888,124.89139 351.51945,125.75972 C 350.94056,126.62801 350.65112,127.20688 350.65112,128.36464 C 350.65112,129.23293 350.36169,130.39066 350.36169,131.54842 C 350.36169,133.28504 350.65112,134.44277 350.94056,135.60053 C 351.22999,136.46882 351.80888,137.33712 352.09831,137.91598 C 352.67718,138.20545 353.25604,138.78431 354.12437,138.78431 C 354.70323,139.07374 355.57153,139.07374 356.15039,139.07374 C 356.72929,139.07374 357.01872,139.07374 357.59758,138.78431 C 358.17645,138.78431 358.75531,138.49488 359.33421,137.91598 C 359.91307,137.62655 360.2025,137.04769 360.49193,136.46882 C 360.78137,135.60053 361.0708,134.7322 361.0708,133.86391 L 358.46588,133.86391 C 358.46588,134.44277 358.46588,135.02163 358.17645,135.31106 C 358.17645,135.88996 357.88702,136.17939 357.59758,136.46882 C 357.30815,136.75826 357.01872,136.75826 356.72929,137.04769 C 356.72929,137.04769 356.43986,137.04769 356.15039,137.04769 C 355.57153,137.04769 354.99267,137.04769 354.70323,136.75826 C 354.4138,136.46882 353.83491,136.17939 353.83491,135.60053 C 353.54547,135.02163 353.25604,134.44277 353.25604,133.57447 C 353.25604,132.70615 352.96661,131.54842 352.96661,130.39066 C 352.96661,129.23293 353.25604,128.65407 353.25604,127.78574 C 353.54547,127.20688 353.54547,126.62801 353.83491,126.33858 C 354.12437,126.04915 354.70323,125.75972 354.99267,125.47025 C 355.2821,125.47025 355.86096,125.47025 356.15039,125.47025 C 356.43986,125.47025 356.72929,125.47025 357.01872,125.47025 C 357.30815,125.47025 357.59758,125.75972 357.59758,126.04915 C 357.88702,126.33858 358.17645,126.62801 358.17645,126.91745 C 358.46588,127.49631 358.46588,127.78574 358.46588,128.65407 L 360.78137,128.65407 z "
       style="fill:#000000"
       id="61869048" />
    <path
       d="M 367.14896,130.10123 C 367.14896,129.23293 367.14896,128.36464 367.43839,127.49631 C 367.43839,126.91745 367.72783,126.62801 368.01726,126.04915 C 368.30669,125.75972 368.59612,125.47025 368.88559,125.47025 C 369.17502,125.18082 369.46445,125.18082 370.04331,125.18082 C 370.33275,125.18082 370.91161,125.18082 371.20107,125.47025 C 371.4905,125.47025 371.77994,125.75972 372.06937,126.04915 C 372.3588,126.33858 372.64823,126.91745 372.64823,127.49631 C 372.93766,128.0752 372.93766,128.9435 372.93766,130.10123 L 367.14896,130.10123 z M 375.54258,132.12728 L 375.54258,130.68012 C 375.54258,129.52236 375.54258,128.36464 375.25315,127.49631 C 375.25315,126.62801 374.96372,125.75972 374.38485,125.18082 C 374.09542,124.60196 373.51653,124.02309 372.93766,123.73366 C 372.06937,123.44423 371.20107,123.44423 370.33275,123.44423 C 368.88559,123.44423 367.72783,123.73366 367.14896,124.02309 C 366.28067,124.60196 365.70177,124.89139 365.41234,125.75972 C 364.83348,126.62801 364.83348,127.20688 364.54404,128.36464 C 364.54404,129.23293 364.54404,130.39066 364.54404,131.54842 C 364.54404,133.28504 364.54404,134.44277 364.83348,135.60053 C 365.12291,136.46882 365.70177,137.33712 365.9912,137.91598 C 366.5701,138.20545 367.14896,138.78431 368.01726,138.78431 C 368.59612,139.07374 369.46445,139.07374 370.33275,139.07374 C 371.77994,139.07374 372.93766,138.78431 374.09542,137.91598 C 374.96372,137.04769 375.54258,135.88996 375.54258,134.15334 L 372.64823,134.15334 C 372.64823,134.7322 372.64823,135.02163 372.64823,135.31106 C 372.3588,135.60053 372.3588,135.88996 372.06937,136.17939 C 371.77994,136.46882 371.4905,136.75826 371.20107,136.75826 C 370.91161,137.04769 370.62218,137.04769 370.04331,137.04769 C 369.75388,137.04769 369.17502,137.04769 368.88559,136.75826 C 368.59612,136.75826 368.01726,136.46882 368.01726,136.17939 C 367.72783,135.88996 367.43839,135.31106 367.14896,134.7322 C 367.14896,133.86391 367.14896,132.99558 367.14896,132.12728 L 375.54258,132.12728 z "
       style="fill:#000000"
       id="61868960" />
    <path
       d="M 387.98831,132.41671 C 387.69888,132.12728 387.40945,131.54842 386.83058,131.25899 C 386.25172,130.68012 385.67283,130.39066 384.80453,130.10123 C 384.22567,129.8118 383.6468,129.52236 383.06791,129.23293 C 382.48904,128.9435 381.91018,128.65407 381.62075,128.36464 C 381.33132,128.0752 381.04185,127.78574 381.04185,127.20688 C 381.04185,126.62801 381.33132,126.04915 381.91018,125.75972 C 382.19961,125.47025 382.77847,125.18082 383.35734,125.18082 C 384.22567,125.18082 384.80453,125.47025 385.09396,125.75972 C 385.67283,126.33858 385.96226,126.91745 385.67283,127.78574 L 388.56721,127.78574 C 388.56721,126.91745 388.56721,126.33858 388.27774,125.75972 C 387.98831,125.18082 387.69888,124.60196 387.12002,124.31253 C 386.83058,124.02309 386.25172,123.73366 385.67283,123.73366 C 385.09396,123.44423 384.5151,123.44423 383.6468,123.44423 C 382.77847,123.44423 381.91018,123.44423 381.04185,123.73366 C 380.46299,124.02309 379.88412,124.31253 379.59469,124.89139 C 379.01583,125.18082 379.01583,125.75972 378.7264,126.33858 C 378.7264,126.62801 378.43693,127.20688 378.43693,127.49631 C 378.43693,128.36464 378.7264,128.9435 379.01583,129.52236 C 379.59469,130.10123 379.88412,130.39066 380.46299,130.68012 C 381.04185,131.25899 381.62075,131.54842 382.19961,131.83785 C 383.06791,132.12728 383.6468,132.41671 384.22567,132.70615 C 384.80453,132.99558 385.09396,133.28504 385.67283,133.57447 C 385.96226,133.86391 385.96226,134.44277 385.96226,134.7322 C 385.96226,135.60053 385.96226,136.17939 385.38339,136.46882 C 384.80453,137.04769 384.22567,137.04769 383.35734,137.04769 C 382.77847,137.04769 382.48904,137.04769 381.91018,136.75826 C 381.62075,136.46882 381.33132,136.17939 381.33132,135.88996 C 381.04185,135.60053 381.04185,135.31106 381.04185,135.02163 C 381.04185,134.7322 381.04185,134.44277 381.04185,134.15334 L 378.1475,134.15334 C 378.1475,135.88996 378.7264,137.33712 379.59469,137.91598 C 380.46299,138.78431 381.62075,139.07374 383.35734,139.07374 C 384.22567,139.07374 384.80453,139.07374 385.38339,138.78431 C 385.96226,138.78431 386.54115,138.49488 387.12002,137.91598 C 387.69888,137.62655 387.98831,137.33712 388.27774,136.75826 C 388.56721,136.17939 388.56721,135.31106 388.56721,134.44277 C 388.56721,133.86391 388.56721,132.99558 387.98831,132.41671 L 387.98831,132.41671 z "
       style="fill:#000000"
       id="61868872" />
  </g>
</svg>
